<?xml version="1.0" standalone="no"?>
<svg version="1.0" xmlns="http://www.w3.org/2000/svg"
 width="1500" height="350" viewBox="0 0 1500 350"
 preserveAspectRatio="xMidYMid meet">
<metadata>DigiStratum logo with grown outlines</metadata>

<!-- Dark gray outline (outermost) -->
<g transform="translate(0.000000,325.000000) scale(0.100000,-0.100000)" fill="#666666" stroke="none">
<path d="M6644 3139 c-59 -14 -110 -68 -123 -131 -6 -27 -11 -116 -11 -198 l0
-148 -29 -7 c-16 -3 -45 -22 -64 -42 -40 -40 -57 -96 -57 -194 l0 -60 -63 54
c-135 115 -269 185 -414 217 -127 28 -359 28 -469 -1 -163 -42 -353 -156 -471
-281 l-51 -55 -7 52 c-14 115 -102 232 -213 283 -46 21 -72 26 -137 27 -118 0
-173 -22 -255 -105 -70 -70 -93 -115 -106 -211 l-6 -45 -57 59 c-148 156 -312
244 -534 288 -313 61 -622 -36 -859 -271 l-76 -76 -7 44 c-15 99 -34 141 -95
202 -83 85 -149 115 -260 115 -111 0 -177 -30 -261 -115 l-59 -61 0 220 c0
259 -7 305 -57 354 -48 48 -95 57 -313 57 -218 0 -265 -9 -313 -57 -46 -45
-57 -96 -57 -262 l0 -128 -24 4 c-37 8 -224 -15 -311 -37 -289 -73 -561 -329
-661 -622 -75 -221 -70 -445 16 -679 78 -214 305 -451 512 -536 338 -137 691
-96 973 114 44 33 104 85 133 116 l52 56 0 -94 c0 -131 13 -185 57 -228 48
-48 95 -57 313 -57 218 0 265 9 313 57 43 42 57 97 57 219 l0 84 62 -63 c135
-137 293 -228 468 -268 25 -6 93 -14 152 -18 59 -4 111 -10 114 -14 4 -3 -10
-28 -29 -55 -44 -59 -58 -115 -45 -176 9 -45 43 -83 193 -218 133 -119 204
-150 299 -128 62 14 97 41 156 120 90 123 165 307 177 438 7 69 16 82 41 59
30 -27 102 -37 289 -37 220 0 268 8 316 57 43 43 57 97 57 223 l0 89 48 -51
c56 -61 186 -159 257 -195 129 -66 303 -107 455 -106 351 1 649 171 833 477
l34 57 33 -93 c62 -175 151 -326 223 -381 79 -60 196 -56 284 10 26 20 85 70
131 111 l82 74 0 -40 c0 -124 49 -202 142 -221 64 -14 392 -14 456 0 68 14
117 63 131 131 7 30 11 215 11 481 l0 432 30 51 c32 56 78 100 127 121 54 22
62 18 52 -24 -64 -273 -1 -572 168 -798 189 -255 457 -387 783 -388 95 0 147
5 215 22 l89 22 27 -20 c15 -12 47 -25 71 -31 58 -13 374 -13 436 1 97 20 142
95 142 237 l0 57 29 -52 c98 -178 189 -239 317 -213 69 15 136 65 316 237 54
52 68 73 76 109 12 56 -1 118 -33 160 -52 68 -75 125 -75 183 l1 56 38 -100
c52 -135 79 -187 148 -280 72 -97 146 -166 258 -240 173 -115 280 -141 652
-155 169 -7 277 -7 305 -1 27 6 58 7 83 1 55 -13 393 -12 453 1 68 14 117 63
131 131 6 27 11 93 11 146 l0 97 245 0 245 0 0 -97 c0 -134 13 -188 57 -231
48 -48 95 -57 313 -57 218 0 265 9 313 57 57 56 58 76 47 591 -10 472 -17 551
-59 674 -82 237 -321 482 -555 566 -395 143 -766 64 -1053 -224 l-83 -83 0 99
c0 54 -5 121 -11 148 -14 68 -63 117 -131 131 -64 14 -392 14 -456 0 -68 -14
-117 -63 -131 -131 -7 -30 -11 -233 -11 -541 l-1 -492 -34 37 c-18 20 -38 53
-44 75 -7 24 -11 190 -11 455 0 256 -4 436 -11 466 -14 68 -63 117 -131 131
-67 15 -411 13 -468 -3 -31 -8 -55 -9 -77 -2 l-33 9 0 148 c0 186 -10 236 -57
282 -48 48 -95 57 -313 57 -218 0 -265 -9 -313 -57 -47 -46 -57 -96 -57 -283
l0 -148 -29 -7 c-16 -3 -45 -22 -64 -42 -41 -40 -57 -96 -57 -200 0 -76 13
-79 -121 30 -109 89 -253 160 -379 188 -82 18 -119 20 -265 16 -158 -4 -176
-6 -255 -34 -133 -48 -190 -76 -261 -130 -37 -28 -71 -53 -76 -56 -6 -4 -17
21 -26 58 -24 97 -69 144 -154 163 -49 11 -191 -1 -308 -26 l-81 -18 -24 23
c-36 34 -103 43 -303 43 -188 0 -259 -10 -289 -37 -16 -15 -20 -15 -35 0 -10
8 -30 19 -45 22 l-28 7 0 149 c0 81 -5 170 -11 197 -14 68 -63 117 -131 131
-59 13 -406 13 -464 0z m-4638 -1091 c-12 -7 -83 5 -93 16 -4 3 1 14 9 23 9
10 19 28 23 41 6 21 9 19 39 -25 23 -33 30 -50 22 -55z m5273 -410 c-1 -282
-2 -319 -14 -293 -11 23 -14 96 -15 323 0 253 2 292 15 292 13 0 15 -42 14
-322z m-6014 283 c95 -55 125 -108 125 -224 0 -95 -45 -175 -128 -228 -40 -25
-56 -29 -117 -29 -61 0 -77 4 -117 29 -87 55 -128 130 -128 234 0 63 4 79 29
118 58 90 125 129 221 129 53 0 74 -5 115 -29z m8023 5 c95 -49 132 -112 132
-229 0 -95 -45 -175 -128 -228 -40 -25 -56 -29 -117 -29 -61 0 -77 4 -117 29
-87 55 -128 130 -128 234 0 63 4 79 29 118 56 88 124 128 219 129 47 0 74 -6
110 -24z m-5766 -25 c83 -53 128 -131 128 -223 0 -121 -28 -173 -125 -229
-120 -69 -274 -18 -341 113 -59 116 -13 265 104 339 40 25 56 29 117 29 61 0
77 -4 117 -29z m1392 -596 c-4 -8 -8 -15 -10 -15 -2 0 -4 7 -4 15 0 8 4 15 10
15 5 0 7 -7 4 -15z"/>
</g>

<!-- White stroke -->
<g transform="translate(0.000000,325.000000) scale(0.100000,-0.100000)" fill="#FFFFFF" stroke="none">
<path d="M6651 3077 c-19 -7 -44 -25 -55 -40 -19 -26 -21 -44 -24 -227 l-3
-198 -39 -7 c-52 -9 -87 -38 -100 -83 -13 -48 -13 -376 0 -424 13 -45 48 -74
99 -83 l38 -6 6 -97 c4 -53 7 -216 7 -360 l0 -264 31 -91 c72 -211 181 -376
261 -397 82 -23 118 -4 284 144 173 156 179 174 97 299 -25 38 -49 85 -54 105
-5 21 -9 177 -9 349 l0 311 40 7 c50 9 87 38 99 78 6 21 10 -193 11 -593 1
-455 4 -634 13 -659 7 -19 25 -44 40 -55 27 -20 41 -21 257 -21 216 0 230 1
257 21 50 37 52 54 53 539 l0 450 31 53 c35 63 95 123 144 146 32 15 176 48
182 42 2 -1 -9 -47 -23 -102 -37 -141 -37 -317 0 -457 47 -175 129 -311 265
-440 88 -82 167 -135 262 -173 182 -74 402 -89 585 -40 l101 27 30 -30 c39
-39 76 -43 300 -39 166 3 184 5 210 24 54 40 55 52 44 588 -6 271 -15 506 -20
525 -24 78 -73 101 -220 101 l-93 0 71 55 c54 43 73 64 80 92 19 68 1 104 -97
189 -113 99 -154 127 -265 179 -128 60 -205 75 -386 75 -133 0 -159 -3 -231
-25 -179 -57 -258 -104 -393 -234 -79 -76 -87 -81 -83 -55 31 190 0 285 -99
313 -43 12 -206 -5 -317 -33 l-87 -22 -21 28 c-31 43 -79 50 -306 46 -187 -3
-205 -5 -231 -24 -15 -11 -32 -35 -38 -52 -10 -36 -25 -42 -25 -11 0 32 -50
76 -97 84 l-42 7 -3 198 c-4 284 1 279 -308 279 -125 0 -207 -4 -229 -12z
m2656 -1091 c28 -13 74 -46 101 -73 42 -41 51 -57 62 -110 28 -137 -2 -255
-85 -338 -64 -65 -116 -85 -217 -85 -84 0 -87 1 -146 40 -61 41 -135 134 -148
187 -4 13 -4 64 -2 113 4 84 6 93 42 144 70 101 150 145 266 146 58 0 86 -6
127 -24z"/>
<path d="M10191 3077 c-19 -7 -44 -25 -55 -40 -19 -26 -21 -44 -24 -227 l-3
-198 -39 -7 c-52 -9 -87 -38 -100 -83 -13 -48 -13 -376 0 -424 13 -45 48 -74
99 -83 l38 -6 6 -97 c4 -53 7 -216 7 -360 l0 -264 31 -91 c72 -211 181 -376
261 -397 82 -23 118 -4 284 144 173 156 179 174 97 299 -25 38 -49 85 -54 105
-5 21 -9 178 -9 350 0 290 1 312 18 312 9 1 34 7 55 14 l37 14 0 -250 c0 -243
1 -252 26 -326 66 -195 143 -321 266 -438 126 -120 268 -197 421 -228 115 -24
592 -41 644 -24 30 11 45 11 73 1 23 -8 103 -12 230 -12 304 0 303 0 308 249
l4 169 26 -17 c23 -15 56 -17 273 -17 240 0 248 1 277 22 l30 22 4 -174 c5
-255 3 -254 308 -254 214 0 250 7 284 52 21 28 21 36 18 390 -6 619 -18 730
-96 885 -63 124 -199 278 -320 361 -173 119 -461 178 -667 137 -265 -54 -519
-241 -637 -471 l-31 -60 -1 220 c-1 240 -7 275 -53 309 -27 20 -41 21 -257 21
-216 0 -230 -1 -257 -21 -51 -38 -52 -47 -52 -642 l-1 -553 -41 23 c-66 37
-116 85 -141 136 -23 47 -23 50 -28 514 -5 454 -6 467 -26 495 -36 48 -76 55
-306 51 -192 -3 -208 -4 -235 -24 -28 -21 -30 -21 -51 -4 -12 10 -40 21 -61
25 l-40 7 -3 198 c-4 284 1 279 -308 279 -125 0 -207 -4 -229 -12z"/>
<path d="M1361 3037 c-19 -6 -44 -25 -55 -40 -19 -26 -21 -44 -24 -210 l-4
-182 -131 -2 c-105 -1 -152 -7 -229 -27 -188 -48 -357 -160 -487 -321 -285
-355 -263 -860 53 -1192 131 -139 249 -210 431 -260 133 -36 325 -38 450 -4
98 26 228 87 310 146 89 63 214 200 258 281 l36 69 1 -210 c1 -229 8 -265 53
-299 27 -20 41 -21 257 -21 318 0 309 -9 309 304 l1 195 34 -57 c111 -184 315
-343 521 -407 73 -22 262 -40 348 -32 l48 4 -7 -28 c-13 -52 -24 -77 -60 -125
-81 -111 -71 -142 100 -295 71 -63 141 -121 155 -128 118 -61 208 -4 311 195
86 168 100 233 110 529 6 164 6 268 -1 292 -9 35 -31 59 -129 137 l-25 20 90
1 c50 0 100 3 113 6 l22 6 1 -253 c0 -276 5 -308 52 -343 27 -20 41 -21 257
-21 324 0 309 -19 309 365 l1 256 108 -4 c59 -1 115 -4 125 -5 12 -1 -5 -21
-55 -62 -125 -103 -125 -156 -1 -276 91 -88 146 -127 246 -174 250 -119 555
-117 800 5 322 161 525 516 503 880 -12 219 -41 250 -235 250 l-93 0 71 55
c55 44 73 64 81 93 18 68 0 103 -98 188 -113 99 -154 127 -265 179 -128 60
-205 75 -384 75 -170 0 -233 -14 -372 -80 -116 -56 -193 -113 -290 -216 -69
-73 -91 -104 -134 -196 -45 -94 -55 -108 -72 -103 -11 4 -51 9 -89 12 -67 6
-68 6 -38 19 47 19 121 93 150 149 38 72 38 179 0 250 -72 136 -214 201 -354
160 -48 -14 -70 -28 -121 -78 -50 -51 -64 -73 -78 -121 -40 -139 27 -287 159
-353 l39 -20 -69 -6 c-38 -3 -78 -8 -89 -12 -17 -5 -23 2 -39 42 -62 156 -228
348 -375 433 -194 112 -436 156 -639 114 -283 -58 -541 -265 -657 -527 -25
-57 -33 -66 -50 -62 -11 4 -50 9 -87 12 l-68 6 40 19 c55 27 137 119 152 171
16 54 16 140 -1 196 -16 55 -89 134 -156 169 -41 22 -63 26 -125 26 -92 0
-152 -27 -222 -102 -132 -141 -84 -369 96 -459 l39 -20 -71 -5 c-40 -3 -82
-12 -95 -21 -21 -14 -29 -14 -63 -2 -23 8 -80 14 -138 15 l-99 0 66 50 c109
83 102 47 105 490 3 421 1 446 -51 484 -26 20 -43 21 -240 23 -148 2 -222 -1
-246 -10z m-83 -1053 c28 -14 73 -46 100 -72 43 -41 51 -55 62 -109 28 -137
-2 -255 -85 -338 -64 -65 -116 -85 -217 -85 -84 0 -87 1 -146 40 -61 41 -135
134 -148 187 -4 13 -4 64 -2 113 4 84 6 93 42 144 40 58 76 90 141 124 62 32
184 31 253 -4z m4430 19 c-27 -2 -69 -2 -95 0 -27 2 -5 3 47 3 52 0 74 -1 48
-3z m-2181 -34 c58 -28 125 -97 157 -161 21 -42 26 -66 26 -127 0 -116 -20
-178 -72 -225 -24 -21 -65 -51 -93 -67 -44 -25 -60 -29 -133 -29 -68 0 -91 4
-132 25 -73 37 -115 79 -150 147 -26 53 -30 72 -30 140 0 64 5 89 26 133 30
65 96 134 156 164 60 30 184 30 245 0z"/>
</g>

<!-- Dark blue inner stroke -->
<g transform="translate(0.000000,325.000000) scale(0.100000,-0.100000)" fill="#003366" stroke="none">
<path d="M6672 2988 c-9 -9 -12 -76 -12 -240 l0 -228 -63 0 c-36 0 -68 -5 -75
-12 -17 -17 -17 -379 0 -396 7 -7 39 -12 73 -12 l62 0 6 -167 c4 -91 7 -273 7
-403 l0 -236 31 -85 c64 -176 163 -329 214 -329 27 0 51 18 180 134 55 49 106
95 113 102 11 9 7 22 -27 71 -79 116 -76 93 -79 526 l-3 387 63 0 c37 0 69 5
76 12 17 17 17 379 0 396 -7 7 -39 12 -75 12 l-63 0 0 228 c0 164 -3 231 -12
240 -17 17 -399 17 -416 0z"/>
<path d="M10212 2988 c-9 -9 -12 -76 -12 -240 l0 -228 -63 0 c-36 0 -68 -5
-75 -12 -17 -17 -17 -379 0 -396 7 -7 39 -12 73 -12 l62 0 6 -167 c4 -91 7
-273 7 -403 l0 -236 31 -85 c64 -176 163 -329 214 -329 27 0 51 18 180 134 55
49 106 95 113 102 11 9 7 22 -27 71 -79 116 -76 93 -79 526 l-3 387 63 0 c37
0 69 5 76 12 17 17 17 379 0 396 -7 7 -39 12 -75 12 l-63 0 0 228 c0 164 -3
231 -12 240 -17 17 -399 17 -416 0z"/>
<path d="M1382 2948 c-9 -9 -12 -75 -12 -236 0 -198 -2 -223 -15 -218 -9 3
-55 11 -104 16 -100 13 -251 1 -341 -26 -194 -57 -408 -241 -504 -433 -103
-203 -113 -438 -30 -659 55 -148 217 -336 362 -422 132 -77 305 -117 462 -106
214 15 390 103 554 277 63 67 87 102 131 193 68 142 77 185 79 376 1 215 19
200 -234 200 -233 0 -229 2 -205 -88 57 -220 -47 -437 -245 -513 -46 -17 -71
-20 -155 -17 -88 3 -107 7 -154 33 -73 40 -139 107 -181 186 -34 63 -35 66
-35 184 0 112 2 124 29 179 36 74 115 153 191 191 56 28 68 30 170 30 104 0
114 -2 175 -32 36 -18 89 -53 118 -79 l53 -46 37 26 c20 14 91 68 157 119
l120 93 3 378 c1 271 -1 383 -9 392 -15 19 -399 20 -417 2z"/>
<path d="M7442 2508 c-17 -17 -17 -1629 0 -1646 17 -17 399 -17 416 0 9 9 12
127 12 470 l0 459 26 52 c81 159 164 220 349 253 43 7 85 19 92 26 14 15 33
155 36 271 3 123 -12 129 -248 91 -49 -8 -127 -30 -172 -48 l-83 -33 0 46 c0
26 -5 52 -12 59 -17 17 -399 17 -416 0z"/>
<path d="M10932 2508 c-8 -8 -10 -133 -5 -492 l6 -481 38 -100 c52 -135 100
-213 188 -307 117 -125 264 -214 401 -244 91 -19 597 -39 616 -23 12 10 14
141 14 823 0 618 -3 815 -12 824 -9 9 -69 12 -208 12 -139 0 -199 -3 -208 -12
-9 -9 -12 -160 -12 -616 l0 -605 -52 6 c-124 15 -264 121 -309 232 -24 60 -24
62 -27 515 -2 302 -7 459 -14 467 -14 18 -398 19 -416 1z"/>
<path d="M2205 2493 c-44 -23 -105 -84 -121 -120 -30 -70 -13 -145 50 -211 64
-69 150 -90 222 -56 53 25 121 107 129 154 11 68 -3 118 -48 167 -72 79 -161
104 -232 66z"/>
<path d="M3235 2495 c-237 -51 -469 -242 -579 -476 -57 -119 -71 -186 -71
-339 0 -111 4 -149 23 -214 75 -260 291 -488 549 -577 99 -34 365 -42 455 -13
20 6 21 4 16 -77 -7 -98 -31 -168 -83 -239 -32 -43 -36 -53 -24 -64 8 -7 59
-53 114 -102 129 -116 153 -134 181 -134 50 0 166 183 214 335 18 60 23 108
30 330 7 198 6 262 -3 274 -11 13 -265 207 -295 225 -8 5 -32 -10 -64 -38 -28
-25 -79 -60 -112 -78 -59 -32 -65 -33 -176 -33 -114 0 -115 0 -187 39 -87 46
-134 96 -177 185 -29 62 -31 73 -31 176 0 104 2 114 33 178 41 82 112 156 189
194 53 26 67 28 168 28 101 0 115 -2 168 -28 77 -38 148 -111 188 -193 28 -56
34 -80 37 -156 3 -64 0 -105 -12 -149 -26 -91 -30 -89 204 -89 254 0 236 -16
234 204 -2 170 -9 212 -51 316 -47 114 -94 183 -192 281 -135 135 -257 202
-429 235 -90 17 -236 17 -317 -1z"/>
<path d="M4455 2496 c-38 -17 -111 -92 -124 -129 -16 -41 -13 -103 5 -140 39
-77 123 -137 193 -137 54 0 82 12 131 56 101 91 107 196 16 292 -62 67 -150
90 -221 58z"/>
<path d="M12945 2495 c-224 -48 -458 -233 -565 -445 -18 -36 -44 -94 -57 -129
-24 -63 -24 -73 -34 -553 -8 -375 -7 -493 2 -504 16 -19 401 -21 417 -1 7 8
12 170 14 467 5 527 3 518 92 615 l55 60 1 -375 c0 -279 3 -379 12 -388 17
-17 439 -17 456 0 9 9 12 110 12 393 l1 380 60 -65 c94 -102 92 -89 97 -620 2
-295 7 -459 14 -467 16 -19 401 -18 417 1 17 21 -4 927 -24 1021 -37 175 -186
377 -367 500 -153 103 -416 151 -603 110z"/>
<path d="M5420 2476 c-149 -52 -259 -125 -374 -247 -61 -65 -87 -103 -126
-183 -73 -152 -81 -190 -82 -376 -1 -141 2 -163 17 -180 17 -19 35 -20 579
-22 l561 -3 -56 -56 c-76 -76 -150 -111 -248 -117 -119 -7 -177 10 -281 80
-87 59 -90 60 -114 45 -42 -28 -273 -215 -281 -227 -9 -15 90 -117 171 -176
78 -56 168 -98 269 -125 110 -29 297 -29 407 0 267 70 488 284 580 561 30 90
32 103 32 250 1 133 -2 160 -17 183 l-17 27 -566 0 -565 0 21 29 c31 44 148
129 203 147 36 12 75 15 146 12 109 -4 141 -18 258 -110 39 -31 67 -47 75 -42
49 29 298 229 298 239 0 14 -99 105 -185 170 -63 48 -214 120 -283 134 -29 6
-121 11 -205 10 -131 0 -161 -3 -217 -23z"/>
<path d="M8940 2476 c-168 -60 -250 -115 -379 -252 -140 -150 -203 -315 -204
-534 -1 -248 81 -433 269 -609 136 -127 274 -191 458 -211 157 -18 298 5 449
74 l57 26 0 -48 c0 -26 5 -53 12 -60 19 -19 382 -17 397 2 9 11 9 136 2 511
-9 448 -11 499 -27 516 -16 17 -33 19 -214 19 -233 0 -229 2 -205 -88 57 -220
-47 -437 -245 -513 -46 -17 -71 -20 -155 -17 -88 3 -107 7 -154 33 -73 40
-139 107 -181 186 -34 63 -35 66 -35 184 0 112 2 124 28 178 40 80 112 151
194 190 63 30 76 32 173 32 97 0 110 -2 170 -31 36 -17 89 -52 117 -78 33 -30
57 -45 65 -40 47 27 298 229 298 239 0 14 -99 104 -185 170 -63 48 -214 120
-283 134 -29 6 -121 11 -205 10 -132 0 -161 -4 -217 -23z"/>
<path d="M2072 1908 c-17 -17 -17 -1029 0 -1046 17 -17 399 -17 416 0 17 17
17 1029 0 1046 -17 17 -399 17 -416 0z"/>
<path d="M4322 1908 c-17 -17 -17 -1029 0 -1046 17 -17 399 -17 416 0 17 17
17 1029 0 1046 -17 17 -399 17 -416 0z"/>
</g>

<!-- Blue fill (innermost) -->
<g transform="translate(0.000000,325.000000) scale(0.100000,-0.100000)" fill="#336699" stroke="none">
<path d="M6680 2740 l0 -240 -75 0 -75 0 0 -190 0 -190 73 0 74 0 6 -182 c4
-99 7 -285 7 -413 l0 -231 31 -85 c38 -104 98 -222 140 -271 54 -66 66 -60
286 144 l53 49 -40 58 c-78 114 -75 90 -78 534 l-3 397 75 0 76 0 0 190 0 190
-75 0 -75 0 0 240 0 240 -200 0 -200 0 0 -240z"/>
<path d="M10220 2740 l0 -240 -75 0 -75 0 0 -190 0 -190 73 0 74 0 6 -182 c4
-99 7 -285 7 -413 l0 -231 31 -85 c38 -104 98 -222 140 -271 54 -66 66 -60
286 144 l53 49 -40 58 c-78 114 -75 90 -78 534 l-3 397 75 0 76 0 0 190 0 190
-75 0 -75 0 0 240 0 240 -200 0 -200 0 0 -240z"/>
<path d="M1390 2704 l0 -236 -32 6 c-149 31 -325 27 -448 -10 -141 -41 -288
-144 -391 -272 -114 -141 -168 -282 -176 -458 -9 -185 33 -340 132 -490 99
-149 249 -266 407 -318 314 -105 634 -21 863 226 51 55 79 98 120 183 29 60
59 134 65 164 14 61 19 359 7 379 -6 9 -59 12 -208 12 -109 0 -199 -3 -199 -6
0 -3 7 -34 16 -68 21 -80 14 -201 -15 -276 -42 -110 -142 -210 -251 -251 -46
-17 -72 -20 -155 -17 -88 3 -107 7 -155 33 -73 40 -157 126 -200 205 -34 64
-35 67 -35 185 0 112 2 124 29 179 37 76 133 172 211 211 56 28 68 30 170 30
104 0 114 -2 175 -32 36 -18 89 -53 117 -78 33 -29 57 -44 65 -39 7 4 75 55
151 113 l137 104 0 379 0 378 -200 0 -200 0 0 -236z"/>
<path d="M7450 1685 l0 -815 200 0 200 0 0 460 0 461 26 52 c59 118 151 209
245 243 32 11 184 44 205 44 9 0 35 299 28 326 -8 31 -18 33 -120 23 -126 -12
-217 -34 -306 -73 l-78 -34 0 64 0 64 -200 0 -200 0 0 -815z"/>
<path d="M10947 2018 l6 -483 38 -100 c21 -55 56 -129 76 -165 51 -86 180
-215 275 -274 150 -92 234 -108 636 -121 l192 -6 0 816 0 815 -200 0 -200 0 0
-618 0 -619 -62 9 c-139 18 -290 132 -339 253 -24 60 -24 61 -27 518 l-3 457
-199 0 -199 0 6 -482z"/>
<path d="M2205 2473 c-75 -39 -115 -100 -115 -173 0 -99 92 -190 191 -190 153
0 246 193 146 306 -60 69 -154 93 -222 57z"/>
<path d="M3235 2475 c-284 -62 -533 -304 -612 -595 -27 -101 -25 -311 5 -414
74 -258 275 -469 529 -557 101 -35 316 -41 457 -14 l39 8 -5 -94 c-6 -108 -28
-174 -82 -248 l-37 -49 53 -49 c166 -154 203 -183 234 -183 44 0 148 168 193
313 21 69 25 121 36 439 l5 157 -137 104 c-76 57 -144 107 -151 111 -8 5 -32
-10 -64 -38 -28 -25 -79 -60 -112 -78 -59 -32 -65 -33 -176 -33 -114 0 -115 0
-187 39 -89 47 -154 115 -196 204 -30 63 -32 74 -32 177 0 104 2 113 33 178
42 86 128 174 208 213 54 27 68 29 169 29 101 0 115 -2 169 -29 79 -39 165
-127 207 -211 29 -59 34 -81 37 -159 3 -65 0 -107 -12 -145 -9 -30 -16 -58
-16 -63 0 -4 90 -8 199 -8 149 0 202 3 208 13 12 18 7 325 -6 377 -37 144
-110 271 -220 381 -124 124 -252 193 -419 225 -90 17 -236 17 -317 -1z"/>
<path d="M4455 2476 c-38 -17 -90 -72 -104 -109 -34 -90 10 -191 103 -239 148
-76 323 101 247 250 -48 94 -158 137 -246 98z"/>
<path d="M12945 2476 c-225 -51 -441 -220 -545 -426 -83 -164 -80 -145 -90
-624 -5 -237 -10 -459 -10 -493 l0 -63 199 0 200 0 3 458 c5 544 0 519 112
638 l75 79 1 -397 0 -398 220 0 220 0 0 395 c0 233 4 395 9 395 5 0 41 -35 80
-77 108 -117 104 -94 109 -635 l4 -458 199 0 199 0 0 28 c-3 372 -22 924 -35
984 -30 150 -133 308 -280 431 -79 66 -175 116 -285 147 -96 28 -297 36 -385
16z"/>
<path d="M5420 2456 c-221 -77 -389 -221 -480 -411 -73 -151 -81 -189 -82
-374 0 -87 2 -164 6 -170 5 -8 168 -11 582 -11 412 0 574 -3 574 -11 0 -6 -30
-41 -67 -78 -89 -88 -159 -123 -262 -129 -119 -7 -177 10 -281 80 l-90 61 -33
-23 c-76 -55 -257 -202 -257 -209 0 -13 121 -125 173 -160 68 -47 160 -87 252
-112 110 -29 297 -29 407 0 264 69 469 268 560 541 29 88 32 105 32 240 1 80
-2 157 -7 173 l-7 27 -581 0 -581 0 20 33 c27 42 142 140 201 169 40 20 61 23
161 23 109 0 118 -2 165 -29 28 -16 78 -51 112 -78 43 -34 67 -47 77 -41 44
25 275 210 276 220 0 6 -44 48 -97 93 -107 89 -256 170 -351 189 -29 6 -121
11 -205 10 -131 0 -161 -3 -217 -23z"/>
<path d="M8940 2456 c-165 -59 -252 -116 -369 -243 -79 -86 -140 -199 -173
-322 -29 -110 -29 -296 1 -409 67 -257 268 -475 512 -556 201 -67 420 -54 622
38 l77 35 0 -64 0 -65 190 0 190 0 -6 398 c-3 218 -9 447 -13 507 l-6 110
-202 3 c-112 1 -203 0 -203 -4 0 -3 7 -34 16 -68 21 -80 14 -201 -15 -276 -42
-110 -142 -210 -251 -251 -46 -17 -72 -20 -155 -17 -88 3 -107 7 -155 33 -73
40 -157 126 -200 205 -34 64 -35 67 -35 185 0 112 2 124 29 178 40 83 128 170
213 210 63 30 75 32 173 32 97 0 110 -2 170 -31 36 -17 88 -52 117 -78 37 -33
57 -45 67 -39 43 24 276 210 276 220 0 6 -44 48 -97 93 -107 89 -256 170 -351
189 -29 6 -121 11 -205 10 -132 0 -161 -4 -217 -23z"/>
<path d="M2080 1385 l0 -515 200 0 200 0 0 515 0 515 -200 0 -200 0 0 -515z"/>
<path d="M4330 1385 l0 -515 200 0 200 0 0 515 0 515 -200 0 -200 0 0 -515z"/>
</g>

</svg>