<?xml version="1.0" encoding="UTF-8" standalone="no"?>
<!-- Created with Inkscape (http://www.inkscape.org/) -->

<svg
   width="110.21342mm"
   height="10.713177mm"
   viewBox="0 0 110.21342 10.713177"
   version="1.1"
   id="svg1"
   xml:space="preserve"
   inkscape:version="1.4 (e7c3feb1, 2024-10-09)"
   sodipodi:docname="lk_logo_inkscape.svg"
   xmlns:inkscape="http://www.inkscape.org/namespaces/inkscape"
   xmlns:sodipodi="http://sodipodi.sourceforge.net/DTD/sodipodi-0.dtd"
   xmlns:xlink="http://www.w3.org/1999/xlink"
   xmlns="http://www.w3.org/2000/svg"
   xmlns:svg="http://www.w3.org/2000/svg"><sodipodi:namedview
     id="namedview1"
     pagecolor="#ffffff"
     bordercolor="#000000"
     borderopacity="0.25"
     inkscape:showpageshadow="2"
     inkscape:pageopacity="0.0"
     inkscape:pagecheckerboard="0"
     inkscape:deskcolor="#d1d1d1"
     inkscape:document-units="mm"
     showguides="true"
     inkscape:zoom="1.7377421"
     inkscape:cx="201.69851"
     inkscape:cy="72.220153"
     inkscape:window-width="1176"
     inkscape:window-height="742"
     inkscape:window-x="102"
     inkscape:window-y="104"
     inkscape:window-maximized="0"
     inkscape:current-layer="svg1"><sodipodi:guide
       position="39.283498,255.26368"
       orientation="0,-1"
       id="guide17"
       inkscape:locked="false" /><sodipodi:guide
       position="55.577064,244.87654"
       orientation="0,-1"
       id="guide18"
       inkscape:locked="false" /></sodipodi:namedview><defs
     id="defs1"><inkscape:path-effect
       effect="perspective-envelope"
       up_left_point="84.455632,157.86406"
       up_right_point="471.16133,157.86406"
       down_left_point="65.981037,198.96481"
       down_right_point="484.24751,198.19504"
       id="path-effect17"
       is_visible="true"
       lpeversion="1"
       deform_type="perspective"
       horizontal_mirror="false"
       vertical_mirror="false"
       overflow_perspective="false" /><inkscape:path-effect
       effect="show_handles"
       id="path-effect16"
       is_visible="true"
       lpeversion="1"
       nodes="true"
       handles="true"
       original_path="true"
       show_center_node="false"
       original_d="false"
       scale_nodes_and_handles="10" /><inkscape:path-effect
       effect="fillet_chamfer"
       id="path-effect15"
       is_visible="true"
       lpeversion="1"
       nodesatellites_param="F,0,0,1,0,0,0,1 @ F,0,0,1,0,0,0,1 @ F,0,0,1,0,0,0,1 @ F,0,0,1,0,0,0,1 @ F,0,0,1,0,0,0,1 @ F,0,0,1,0,0,0,1 @ F,0,0,1,0,0,0,1 @ F,0,0,1,0,0,0,1 @ F,0,0,1,0,0,0,1 @ F,0,0,1,0,0,0,1 @ F,0,0,1,0,0,0,1 @ F,0,0,1,0,0,0,1 @ F,0,0,1,0,0,0,1 @ F,0,0,1,0,0,0,1 @ F,0,0,1,0,0,0,1 @ F,0,0,1,0,0,0,1 @ F,0,0,1,0,0,0,1 @ F,0,0,1,0,0,0,1 @ F,0,0,1,0,0,0,1 @ F,0,0,1,0,0,0,1 @ F,0,0,1,0,0,0,1 | F,0,0,1,0,0,0,1 @ F,0,0,1,0,0,0,1 @ F,0,0,1,0,0,0,1 @ F,0,0,1,0,0,0,1 @ F,0,0,1,0,0,0,1 @ F,0,0,1,0,0,0,1 @ F,0,0,1,0,0,0,1 @ F,0,0,1,0,0,0,1 @ F,0,0,1,0,0,0,1 @ F,0,0,1,0,0,0,1 @ F,0,0,1,0,0,0,1 @ F,0,0,1,0,0,0,1 @ F,0,0,1,0,0,0,1 @ F,0,0,1,0,0,0,1 @ F,0,0,1,0,0,0,1 @ F,0,0,1,0,0,0,1 @ F,0,0,1,0,0,0,1 @ F,0,0,1,0,0,0,1 @ F,0,0,1,0,0,0,1 @ F,0,0,1,0,0,0,1 @ F,0,0,1,0,0,0,1 @ F,0,0,1,0,0,0,1 @ F,0,0,1,0,0,0,1 @ F,0,0,1,0,0,0,1 @ F,0,0,1,0,0,0,1 @ F,0,0,1,0,0,0,1 @ F,0,0,1,0,0,0,1 @ F,0,0,1,0,0,0,1 @ F,0,0,1,0,0,0,1 @ F,0,0,1,0,0,0,1 @ F,0,0,1,0,0,0,1 @ F,0,0,1,0,0,0,1 @ F,0,0,1,0,0,0,1 @ F,0,0,1,0,0,0,1 @ F,0,0,1,0,0,0,1 @ F,0,0,1,0,0,0,1 | F,0,0,1,0,0,0,1 @ F,0,0,1,0,0,0,1 @ F,0,0,1,0,0,0,1 @ F,0,0,1,0,0,0,1 | F,0,0,1,0,0,0,1 @ F,0,0,1,0,0,0,1 @ F,0,0,1,0,0,0,1 @ F,0,0,1,0,0,0,1 @ F,0,0,1,0,0,0,1 @ F,0,0,1,0,0,0,1 @ F,0,0,1,0,0,0,1 @ F,0,0,1,0,0,0,1 @ F,0,0,1,0,0,0,1 @ F,0,0,1,0,0,0,1 @ F,0,0,1,0,0,0,1 @ F,0,0,1,0,0,0,1 @ F,0,0,1,0,0,0,1 @ F,0,0,1,0,0,0,1 @ F,0,0,1,0,0,0,1 @ F,0,0,1,0,0,0,1 @ F,0,0,1,0,0,0,1 @ F,0,0,1,0,0,0,1 @ F,0,0,1,0,0,0,1 @ F,0,0,1,0,0,0,1 @ F,0,0,1,0,0,0,1 @ F,0,0,1,0,0,0,1 @ F,0,0,1,0,0,0,1 @ F,0,0,1,0,0,0,1 @ F,0,0,1,0,0,0,1 @ F,0,0,1,0,0,0,1 | F,0,0,1,0,0,0,1 @ F,0,0,1,0,0,0,1 @ F,0,0,1,0,0,0,1 @ F,0,0,1,0,0,0,1 @ F,0,0,1,0,0,0,1 @ F,0,0,1,0,0,0,1 @ F,0,0,1,0,0,0,1 @ F,0,0,1,0,0,0,1 @ F,0,0,1,0,0,0,1 @ F,0,0,1,0,0,0,1 @ F,0,0,1,0,0,0,1 @ F,0,0,1,0,0,0,1 @ F,0,0,1,0,0,0,1 @ F,0,0,1,0,0,0,1 @ F,0,0,1,0,0,0,1 @ F,0,0,1,0,0,0,1 @ F,0,0,1,0,0,0,1 @ F,0,0,1,0,0,0,1 @ F,0,0,1,0,0,0,1 @ F,0,0,1,0,0,0,1 @ F,0,0,1,0,0,0,1 | F,0,0,1,0,0,0,1 @ F,0,0,1,0,0,0,1 @ F,0,0,1,0,0,0,1 @ F,0,0,1,0,0,0,1 @ F,0,0,1,0,0,0,1 @ F,0,0,1,0,0,0,1 @ F,0,0,1,0,0,0,1 @ F,0,0,1,0,0,0,1 @ F,0,0,1,0,0,0,1 | F,0,0,1,0,0,0,1 @ F,0,0,1,0,0,0,1 @ F,0,0,1,0,0,0,1 @ F,0,0,1,0,0,0,1 @ F,0,0,1,0,0,0,1 @ F,0,0,1,0,0,0,1 @ F,0,0,1,0,0,0,1 @ F,0,0,1,0,0,0,1 @ F,0,0,1,0,0,0,1 @ F,0,0,1,0,0,0,1 @ F,0,0,1,0,0,0,1 @ F,0,0,1,0,0,0,1 @ F,0,0,1,0,0,0,1 | F,0,0,1,0,0,0,1 @ F,0,0,1,0,0,0,1 @ F,0,0,1,0,0,0,1 @ F,0,0,1,0,0,0,1 @ F,0,0,1,0,0,0,1 @ F,0,0,1,0,0,0,1 @ F,0,0,1,0,0,0,1 @ F,0,0,1,0,0,0,1 @ F,0,0,1,0,0,0,1 @ F,0,0,1,0,0,0,1 @ F,0,0,1,0,0,0,1 @ F,0,0,1,0,0,0,1 @ F,0,0,1,0,0,0,1 @ F,0,0,1,0,0,0,1 @ F,0,0,1,0,0,0,1 @ F,0,0,1,0,0,0,1 | F,0,0,1,0,0,0,1 @ F,0,0,1,0,0,0,1 @ F,0,0,1,0,0,0,1 @ F,0,0,1,0,0,0,1 @ F,0,0,1,0,0,0,1 @ F,0,0,1,0,0,0,1 @ F,0,0,1,0,0,0,1 @ F,0,0,1,0,0,0,1 @ F,0,0,1,0,0,0,1 @ F,0,0,1,0,0,0,1 | F,0,0,1,0,0,0,1 @ F,0,0,1,0,0,0,1 @ F,0,0,1,0,0,0,1 @ F,0,0,1,0,0,0,1 @ F,0,0,1,0,0,0,1 @ F,0,0,1,0,0,0,1 @ F,0,0,1,0,0,0,1 @ F,0,0,1,0,0,0,1 @ F,0,0,1,0,0,0,1 @ F,0,0,1,0,0,0,1 @ F,0,0,1,0,0,0,1 @ F,0,0,1,0,0,0,1 @ F,0,0,1,0,0,0,1 @ F,0,0,1,0,0,0,1 @ F,0,0,1,0,0,0,1 @ F,0,0,1,0,0,0,1 | F,0,0,1,0,0,0,1 @ F,0,0,1,0,0,0,1 @ F,0,0,1,0,0,0,1 @ F,0,0,1,0,0,0,1 @ F,0,0,1,0,0,0,1 @ F,0,0,1,0,0,0,1 @ F,0,0,1,0,0,0,1 @ F,0,0,1,0,0,0,1 @ F,0,0,1,0,0,0,1 @ F,0,0,1,0,0,0,1 @ F,0,0,1,0,0,0,1 @ F,0,0,1,0,0,0,1 @ F,0,0,1,0,0,0,1 @ F,0,0,1,0,0,0,1 @ F,0,0,1,0,0,0,1 @ F,0,0,1,0,0,0,1 @ F,0,0,1,0,0,0,1 @ F,0,0,1,0,0,0,1 @ F,0,0,1,0,0,0,1 @ F,0,0,1,0,0,0,1 @ F,0,0,1,0,0,0,1 @ F,0,0,1,0,0,0,1 @ F,0,0,1,0,0,0,1 @ F,0,0,1,0,0,0,1 @ F,0,0,1,0,0,0,1 @ F,0,0,1,0,0,0,1 @ F,0,0,1,0,0,0,1 @ F,0,0,1,0,0,0,1 @ F,0,0,1,0,0,0,1 @ F,0,0,1,0,0,0,1 @ F,0,0,1,0,0,0,1 @ F,0,0,1,0,0,0,1 @ F,0,0,1,0,0,0,1 @ F,0,0,1,0,0,0,1 @ F,0,0,1,0,0,0,1 @ F,0,0,1,0,0,0,1 @ F,0,0,1,0,0,0,1 @ F,0,0,1,0,0,0,1 @ F,0,0,1,0,0,0,1 @ F,0,0,1,0,0,0,1 @ F,0,0,1,0,0,0,1 @ F,0,0,1,0,0,0,1 @ F,0,0,1,0,0,0,1 @ F,0,0,1,0,0,0,1 @ F,0,0,1,0,0,0,1 | F,0,0,1,0,0,0,1 @ F,0,0,1,0,0,0,1 @ F,0,0,1,0,0,0,1 @ F,0,0,1,0,0,0,1 @ F,0,0,1,0,0,0,1 @ F,0,0,1,0,0,0,1 @ F,0,0,1,0,0,0,1 @ F,0,0,1,0,0,0,1 @ F,0,0,1,0,0,0,1 @ F,0,0,1,0,0,0,1 @ F,0,0,1,0,0,0,1 @ F,0,0,1,0,0,0,1 @ F,0,0,1,0,0,0,1 | F,0,0,1,0,0,0,1 @ F,0,0,1,0,0,0,1 @ F,0,0,1,0,0,0,1 @ F,0,0,1,0,0,0,1 @ F,0,0,1,0,0,0,1 @ F,0,0,1,0,0,0,1 @ F,0,0,1,0,0,0,1 @ F,0,0,1,0,0,0,1 @ F,0,0,1,0,0,0,1 @ F,0,0,1,0,0,0,1 @ F,0,0,1,0,0,0,1 @ F,0,0,1,0,0,0,1 @ F,0,0,1,0,0,0,1 @ F,0,0,1,0,0,0,1 @ F,0,0,1,0,0,0,1 @ F,0,0,1,0,0,0,1 | F,0,0,1,0,0,0,1 @ F,0,0,1,0,0,0,1 @ F,0,0,1,0,0,0,1 @ F,0,0,1,0,0,0,1 @ F,0,0,1,0,0,0,1 @ F,0,0,1,0,0,0,1 @ F,0,0,1,0,0,0,1 @ F,0,0,1,0,0,0,1 @ F,0,0,1,0,0,0,1 @ F,0,0,1,0,0,0,1"
       radius="0"
       unit="px"
       method="auto"
       mode="F"
       chamfer_steps="1"
       flexible="false"
       use_knot_distance="true"
       apply_no_radius="true"
       apply_with_radius="true"
       only_selected="false"
       hide_knots="false" /><linearGradient
       id="swatch15"
       inkscape:swatch="solid"><stop
         style="stop-color:#000000;stop-opacity:1;"
         offset="0"
         id="stop15" /></linearGradient><rect
       x="57.733109"
       y="135.48036"
       width="618.89893"
       height="147.02698"
       id="rect15" /><pattern
       inkscape:collect="always"
       xlink:href="#pattern12"
       preserveAspectRatio="xMidYMid"
       id="pattern14"
       patternTransform="translate(-1.8823242e-7)" /><rect
       x="50.035362"
       y="34.639866"
       width="719.73944"
       height="162.42249"
       id="rect12" /><rect
       x="31.940245"
       y="114.0723"
       width="584.05017"
       height="474.54077"
       id="rect11" /><rect
       x="86.347672"
       y="215.86917"
       width="518.086"
       height="733.9552"
       id="rect10" /><rect
       x="-17269.533"
       y="7684.9424"
       width="39374.535"
       height="4576.4263"
       id="rect2" /><rect
       x="-18176.184"
       y="7641.7686"
       width="38424.711"
       height="4749.1216"
       id="rect1" /><pattern
       patternUnits="userSpaceOnUse"
       width="389.08446"
       height="60.264348"
       patternTransform="translate(54.717449,51.676203)"
       preserveAspectRatio="xMidYMid"
       id="pattern12"><text
         xml:space="preserve"
         transform="translate(-54.717449,-51.676203)"
         id="text11"
         style="text-align:start;writing-mode:lr-tb;direction:ltr;white-space:pre;shape-inside:url(#rect12)"><tspan
           x="50.035156"
           y="110.93144"
           id="tspan4"><tspan
             style="font-weight:760;font-size:82.6667px;font-family:'.SF Soft Numeric';-inkscape-font-specification:'.SF Soft Numeric weight=760'"
             id="tspan3">LEAPKICK</tspan></tspan></text></pattern><pattern
       patternUnits="userSpaceOnUse"
       width="389.08447"
       height="60.264346"
       patternTransform="translate(54.717448,51.676204)"
       preserveAspectRatio="xMidYMid"
       id="pattern13"><rect
         style="fill:url(#pattern14);stroke:none"
         width="389.08447"
         height="60.264347"
         x="0"
         y="0"
         id="rect13" /></pattern></defs><path
     style="font-weight:860;font-size:82.6667px;font-family:'.SF Soft Numeric';-inkscape-font-specification:'.SF Soft Numeric weight=860';white-space:pre;fill:#80b3ff;fill-opacity:1;stroke:#000000;stroke-width:0;stroke-linecap:butt;stroke-dasharray:none;stroke-opacity:1"
     d="m 69.575841,198.18646 c -0.750466,0.001 -1.335802,-0.0766 -1.7558,-0.23387 -0.390925,-0.15721 -0.630875,-0.39348 -0.719933,-0.70861 -0.08896,-0.31476 -0.01407,-0.73749 0.224248,-1.26768 l 15.972062,-35.53332 c 0.207468,-0.46155 0.479551,-0.82849 0.816256,-1.10121 0.336333,-0.27242 0.748815,-0.47655 1.237509,-0.61255 0.515138,-0.13592 1.120007,-0.20386 1.814801,-0.20388 l 8.73468,-2.6e-4 c 0.694207,-2e-5 1.22613,0.0678 1.595938,0.20367 0.369995,0.13588 0.604647,0.33986 0.7039,0.61209 0.09936,0.27251 0.05232,0.63919 -0.141449,1.10044 l -12.231827,29.11618 22.188754,-0.0315 c 0.76434,-0.001 1.34421,0.0745 1.73979,0.22692 0.39579,0.15246 0.64986,0.3818 0.76213,0.68821 0.1124,0.30677 0.0756,0.71019 -0.1108,1.21073 l -1.58397,4.25368 c -0.19703,0.52913 -0.469,0.95142 -0.8159,1.26636 -0.34732,0.31533 -0.78055,0.55238 -1.29962,0.71094 -0.51939,0.15866 -1.16761,0.23873 -1.94443,0.24014 z m 48.902239,-0.0883 c -0.74718,0.001 -1.33703,-0.0764 -1.76932,-0.23333 -0.40335,-0.15684 -0.66343,-0.39256 -0.7803,-0.70695 -0.11676,-0.31402 -0.08,-0.73576 0.10987,-1.2647 l 12.73638,-35.48106 c 0.15921,-0.44351 0.39431,-0.80118 0.70526,-1.07335 0.3106,-0.27186 0.70315,-0.47558 1.17771,-0.6113 0.47427,-0.13564 1.05731,-0.20344 1.74929,-0.20347 l 33.52271,-9.9e-4 c 0.68985,-2e-5 1.22783,0.0676 1.61408,0.20303 0.38646,0.13546 0.64783,0.33879 0.78407,0.61016 0.1364,0.27166 0.14033,0.63717 0.0115,1.09697 l -1.05364,3.76074 c -0.12613,0.45023 -0.33567,0.81449 -0.62868,1.09242 -0.29333,0.27825 -0.67505,0.4872 -1.1451,0.62666 -0.47031,0.13956 -1.05577,0.2095 -1.75617,0.20976 l -22.16624,0.008 -2.49656,7.57244 20.98125,-0.0149 c 0.711,-5.1e-4 1.26465,0.0709 1.66114,0.21437 0.3967,0.1435 0.66368,0.35915 0.80089,0.64712 0.13737,0.28827 0.13966,0.66726 0.007,1.13736 l -0.99036,3.49813 c -0.13514,0.47734 -0.35519,0.86364 -0.66023,1.15848 -0.30538,0.29519 -0.701,0.51698 -1.18681,0.66517 -0.4861,0.14829 -1.08999,0.22284 -1.81146,0.2236 l -21.29071,0.0224 -2.71471,8.23411 23.1926,-0.0329 c 0.7328,-0.001 1.30301,0.0744 1.71081,0.22645 0.40803,0.15211 0.68195,0.38092 0.8217,0.68661 0.13991,0.30605 0.14008,0.70853 1.7e-4,1.20789 l -1.18892,4.24363 c -0.14789,0.52786 -0.38014,0.94914 -0.69681,1.26333 -0.31703,0.31457 -0.72676,0.55105 -1.22913,0.70923 -0.50268,0.15828 -1.12648,0.23813 -1.87119,0.23948 z m 59.23747,-9.27057 5.2514,-7.45499 22.2001,0.50499 2.07642,6.90886 z m 14.30436,-28.65242 c 0.31134,-0.42489 0.64025,-0.75581 0.9869,-0.99312 0.34632,-0.23708 0.7429,-0.40629 1.18986,-0.50777 0.47324,-0.10143 1.06704,-0.15214 1.78155,-0.15216 l 12.37731,-3.7e-4 c 0.71366,-2e-5 1.27185,0.0506 1.67469,0.15196 0.42945,0.10136 0.76644,0.27041 1.01104,0.50727 0.24482,0.23708 0.43199,0.56767 0.5615,0.99215 l 11.76114,35.39092 c 0.17458,0.50599 0.16468,0.92539 -0.0301,1.2578 -0.19506,0.33283 -0.52162,0.59773 -0.97978,0.79452 -0.43004,0.19687 -1.02955,0.29607 -1.79832,0.29745 l -9.95617,0.018 c -0.76952,0.001 -1.38568,-0.0564 -1.84829,-0.17334 -0.43027,-0.13656 -0.76204,-0.34185 -0.99527,-0.61569 -0.233,-0.27358 -0.41702,-0.65443 -0.55206,-1.14209 l -6.64116,-29.39508 -0.28221,1.1e-4 -19.22721,29.43991 c -0.28729,0.48897 -0.62069,0.87119 -1.00011,1.14619 -0.37982,0.27527 -0.82917,0.48222 -1.34799,0.62067 -0.48577,0.11881 -1.10034,0.1789 -1.84356,0.18025 l -9.99545,0.0181 c -0.77255,0.001 -1.34729,-0.0959 -1.72399,-0.29186 -0.34785,-0.19585 -0.54842,-0.46051 -0.60185,-0.79378 -0.0534,-0.33286 0.10236,-0.75362 0.46664,-1.26187 z m 41.21373,37.71576 c -0.73951,0.001 -1.33984,-0.076 -1.80077,-0.23205 -0.43226,-0.15598 -0.73923,-0.3904 -0.92092,-0.70306 -0.18147,-0.31229 -0.23358,-0.73171 -0.15656,-1.25774 l 5.16395,-35.27268 c 0.0671,-0.45839 0.22616,-0.82282 0.47703,-1.09368 0.2506,-0.27056 0.59666,-0.4733 1.03822,-0.60837 0.46766,-0.135 1.04409,-0.20248 1.72948,-0.2025 l 21.33115,-6.3e-4 c 4.235,-1.3e-4 7.87205,0.53922 10.92158,1.62131 3.06304,1.06944 5.39492,2.58796 6.99566,4.56366 1.64078,1.97354 2.38984,4.32204 2.23655,7.05595 l -0.003,0.0532 c -0.15397,2.74598 -1.18842,5.16917 -3.11392,7.2603 -1.91274,2.08996 -4.55294,3.72555 -7.92078,4.89808 -3.38236,1.15943 -7.3117,1.74399 -11.77746,1.74961 l -10.32529,0.013 -1.16658,9.93614 c -0.0617,0.52564 -0.22432,0.94514 -0.48796,1.258 -0.26395,0.31324 -0.63246,0.54872 -1.10552,0.70622 -0.47335,0.15761 -1.07954,0.23712 -1.81838,0.23845 z m 22.63065,-32.14071 -6.40958,0.002 -1.4422,12.28367 6.5651,-0.006 c 3.17173,-0.003 5.69594,-0.541 7.56726,-1.61088 1.89052,-1.06534 2.91836,-2.59993 3.08858,-4.59549 l 0.005,-0.0532 c 0.17037,-1.99737 -0.5863,-3.49795 -2.2642,-4.51045 -1.64481,-1.00867 -4.01287,-1.51101 -7.10951,-1.50991 z m 45.12564,20.7034 0.17404,-11.41624 0.77166,-6e-4 17.77535,-15.20445 c 0.38572,-0.35444 0.75971,-0.62416 1.12218,-0.80942 0.36218,-0.18511 0.76481,-0.31125 1.20801,-0.3785 0.44261,-0.084 1.00394,-0.12606 1.68407,-0.12608 l 8.90333,-2.6e-4 c 0.73182,-2e-5 1.27259,0.10072 1.62256,0.30235 0.34938,0.18495 0.54546,0.43739 0.5881,0.75753 0.068,0.30366 -0.0985,0.63307 -0.50018,0.98833 l -17.25732,14.97024 -3.49191,0.003 z m -12.09406,11.33679 c -0.73579,0.001 -1.34116,-0.0758 -1.81586,-0.23143 -0.44618,-0.15556 -0.77571,-0.38935 -0.98859,-0.70117 -0.21263,-0.31145 -0.3075,-0.72975 -0.28482,-1.25437 l 1.52133,-35.18403 c 0.0198,-0.45731 0.1407,-0.82089 0.36261,-1.09111 0.22168,-0.26993 0.54534,-0.4722 0.97099,-0.60695 0.45163,-0.13469 1.01847,-0.20201 1.70066,-0.20203 l 8.57635,-2.5e-4 c 0.68162,-2e-5 1.23095,0.0672 1.64814,0.20181 0.41741,0.13465 0.72905,0.33676 0.93492,0.6065 0.20608,0.27002 0.30593,0.63334 0.29935,1.09036 l -0.50559,35.15923 c -0.008,0.52423 -0.12636,0.94261 -0.35665,1.25463 -0.23057,0.31239 -0.57317,0.54723 -1.0278,0.70431 -0.45491,0.15718 -1.05003,0.23647 -1.78516,0.2378 z m 35.68385,-0.0644 c -0.76164,0.001 -1.38355,-0.0463 -1.86558,-0.14311 -0.48188,-0.0967 -0.90859,-0.25208 -1.28005,-0.46592 -0.37161,-0.23316 -0.74501,-0.5634 -1.12,-0.99037 l -16.58646,-17.62346 10.84112,-6.33827 23.16264,23.17575 c 0.44385,0.42532 0.64746,0.8129 0.61031,1.16258 -0.0372,0.35014 -0.26054,0.64261 -0.67032,0.87723 -0.38296,0.21527 -0.94087,0.32363 -1.67348,0.32496 z m 23.37345,-0.0422 c -0.73187,0.001 -1.34255,-0.0756 -1.83179,-0.23078 -0.46084,-0.15511 -0.81418,-0.38824 -1.05999,-0.69916 -0.24551,-0.31057 -0.38552,-0.72767 -0.42019,-1.2508 l -2.32495,-35.08997 c -0.0302,-0.45618 0.0504,-0.81884 0.24175,-1.0884 0.19113,-0.26925 0.49112,-0.47102 0.89995,-0.60544 0.43472,-0.13435 0.99141,-0.2015 1.67022,-0.20152 l 8.53392,-2.5e-4 c 0.67825,-2e-5 1.23218,0.0671 1.662,0.20131 0.43003,0.13431 0.76217,0.33593 0.99643,0.60499 0.23452,0.26935 0.37348,0.63177 0.41678,1.08764 l 3.33028,35.06531 c 0.0496,0.52274 -0.023,0.93992 -0.21806,1.25105 -0.19534,0.3115 -0.51058,0.54567 -0.94575,0.70229 -0.43545,0.15673 -1.01885,0.23579 -1.75006,0.23711 z m 49.53979,0.67094 c -6.0629,0.0112 -11.43841,-0.84686 -16.10292,-2.5663 -4.6087,-1.70919 -8.29197,-4.15392 -11.04624,-7.31401 -2.69698,-3.14214 -4.26965,-6.86463 -4.73571,-11.14177 l -0.003,-0.0271 c -0.45847,-4.20736 0.30062,-7.75287 2.25456,-10.66197 1.93146,-2.8756 4.85448,-5.04911 8.76716,-6.53822 3.9118,-1.49654 8.65149,-2.24126 14.23548,-2.24126 4.51707,0 8.64905,0.53484 12.40847,1.60771 3.77106,1.06026 6.97273,2.53165 9.60828,4.42132 2.68117,1.90352 4.60906,4.09912 5.77736,6.59441 v 0 c 0.2115,0.49144 0.25826,0.89591 0.13975,1.21299 -0.11863,0.31748 -0.3857,0.56481 -0.80134,0.74176 -0.41969,0.15941 -1.00307,0.2394 -1.75002,0.2399 l -8.28655,0.006 c -0.64076,4.4e-4 -1.17149,-0.0523 -1.59206,-0.15818 -0.42041,-0.10583 -0.78556,-0.27352 -1.09536,-0.50294 -0.28289,-0.22925 -0.54198,-0.5464 -0.77719,-0.95115 v 0 c -0.6872,-1.12294 -1.62255,-2.09263 -2.80549,-2.9108 -1.17927,-0.81563 -2.5735,-1.44711 -4.18349,-1.89578 -1.58099,-0.44795 -3.3722,-0.6713 -5.37583,-0.6706 -2.6369,9.3e-4 -4.86114,0.45867 -6.67738,1.37584 -1.79662,0.92062 -3.10424,2.24622 -3.92195,3.9831 -0.82583,1.73117 -1.07088,3.83085 -0.72843,6.30783 l 0.004,0.0271 c 0.3483,2.51932 1.19539,4.70424 2.54569,6.54593 1.35971,1.85449 3.13237,3.28096 5.31671,4.27234 2.19217,0.99493 4.67203,1.49174 7.43318,1.48776 1.95999,-0.003 3.69993,-0.24139 5.21787,-0.71501 1.51502,-0.47271 2.7426,-1.15053 3.68249,-2.03187 0.93668,-0.87834 1.56232,-1.93891 1.8782,-3.17953 v 0 c 0.11175,-0.42452 0.26948,-0.74715 0.47319,-0.96826 0.20007,-0.2393 0.49366,-0.41419 0.88078,-0.52481 0.38694,-0.11056 0.90652,-0.16618 1.55884,-0.1669 l 8.47667,-0.009 c 0.76041,-8.3e-4 1.3772,0.0902 1.85064,0.2732 0.49701,0.16473 0.87607,0.41241 1.13718,0.74329 0.28864,0.33126 0.42039,0.75541 0.39492,1.27292 v 0 c -0.0614,2.65898 -1.08013,5.05401 -3.06796,7.17778 -1.98028,2.12207 -4.77818,3.79956 -8.39475,5.02392 -3.60629,1.23031 -7.84202,1.85219 -12.69554,1.86112 z m 46.53224,-12.08615 -2.89879,-11.33995 0.76191,-5.9e-4 13.4672,-15.10778 c 0.28571,-0.35226 0.58261,-0.62031 0.89083,-0.80443 0.30798,-0.18398 0.67178,-0.30935 1.09149,-0.37618 0.41461,-0.0835 0.95779,-0.12528 1.62961,-0.1253 l 8.7946,-2.6e-4 c 0.72288,-3e-5 1.28413,0.1001 1.684,0.30049 0.39482,0.18382 0.65634,0.43471 0.78449,0.75288 0.14877,0.30178 0.0727,0.62916 -0.22851,0.98223 l -13.02129,14.87489 -3.4478,0.003 z m -8.89208,11.25778 c -0.72609,0.001 -1.34453,-0.0753 -1.85507,-0.22982 -0.48236,-0.15445 -0.8706,-0.38659 -1.16467,-0.6962 -0.29374,-0.30926 -0.49995,-0.7246 -0.61871,-1.24552 l -7.96793,-34.95113 c -0.10361,-0.45449 -0.0821,-0.81581 0.0644,-1.08437 0.14627,-0.26827 0.41151,-0.46929 0.79566,-0.60322 0.40985,-0.13385 0.95163,-0.20076 1.62548,-0.20078 l 8.47144,-2.5e-4 c 0.67329,-2e-5 1.234,0.0668 1.68231,0.20058 0.44854,0.13382 0.81076,0.33469 1.08671,0.60276 0.27623,0.26836 0.47262,0.62944 0.58911,1.08363 l 8.958,34.92666 c 0.1335,0.52053 0.12867,0.93595 -0.0148,1.24576 -0.14365,0.31019 -0.41877,0.54336 -0.82539,0.69932 -0.40688,0.15606 -0.97312,0.23478 -1.69856,0.23609 z m 35.21375,-0.0636 c -0.75162,0.001 -1.37846,-0.0461 -1.88036,-0.14212 -0.50176,-0.0961 -0.96479,-0.25031 -1.38898,-0.46264 -0.42954,-0.23152 -0.88692,-0.55943 -1.37186,-0.98338 l -21.11528,-17.50308 9.00208,-6.29671 29.09907,23.01952 c 0.5524,0.42233 0.85748,0.80719 0.91465,1.15439 0.0573,0.34767 -0.0848,0.63807 -0.42635,0.87103 -0.32034,0.21374 -0.84208,0.32133 -1.56505,0.32264 z"
     id="text14"
     transform="matrix(0.26458333,0,0,0.26458333,-17.743983,-41.768199)"
     aria-label="LEAPKICK"
     sodipodi:nodetypes="scsssscssssscsssssssssscssssssssssssssccssssssssccsssssssssccccccscsscsccscsscsccccscsscsccscsssscssccssccscssssscccscsscscccccscssccccccscsssscsssssssssssscccccscssscsssscsssssssssssccssscsccssscssscssscsccssssssssscsssccssccssccccscssccccccscsssscsssssssssssscccccscss"
     inkscape:path-effect="#path-effect17"
     inkscape:original-d="m 65.159508,211.77128 c -0.699653,0 -1.278212,-0.10764 -1.735677,-0.32292 -0.430556,-0.21527 -0.753473,-0.53819 -0.968751,-0.96875 -0.215278,-0.43055 -0.322917,-1.00911 -0.322917,-1.73567 v -52.19143 c 0,-0.72657 0.107639,-1.30513 0.322917,-1.73568 0.215278,-0.43055 0.538195,-0.75347 0.968751,-0.96875 0.457465,-0.21528 1.036024,-0.32292 1.735677,-0.32292 h 8.799483 c 0.699653,0 1.264758,0.10764 1.695314,0.32292 0.430555,0.21528 0.753472,0.5382 0.96875,0.96875 0.215278,0.43055 0.322917,1.00911 0.322917,1.73568 v 43.31121 h 21.070321 c 0.726563,0 1.305123,0.10764 1.735678,0.32292 0.430549,0.21528 0.753469,0.5382 0.968749,0.96875 0.21528,0.43056 0.32292,0.99566 0.32292,1.69531 v 5.89324 c 0,0.72656 -0.10764,1.30512 -0.32292,1.73567 -0.21528,0.43056 -0.5382,0.75348 -0.968749,0.96875 -0.430555,0.21528 -1.009115,0.32292 -1.735678,0.32292 z m 45.692722,0 c -0.69965,0 -1.27821,-0.10764 -1.73567,-0.32292 -0.43056,-0.21527 -0.75348,-0.53819 -0.96875,-0.96875 -0.21528,-0.43055 -0.32292,-1.00911 -0.32292,-1.73567 v -52.2318 c 0,-0.69965 0.10764,-1.26476 0.32292,-1.69531 0.21527,-0.43055 0.53819,-0.75347 0.96875,-0.96875 0.43055,-0.21528 0.99566,-0.32292 1.69531,-0.32292 h 33.94663 c 0.69965,0 1.26476,0.10764 1.69531,0.32292 0.43056,0.21528 0.75348,0.5382 0.96875,0.96875 0.21528,0.43055 0.32292,1.00911 0.32292,1.73568 v 5.89323 c 0,0.69965 -0.10764,1.26476 -0.32292,1.69531 -0.21527,0.43056 -0.53819,0.75348 -0.96875,0.96875 -0.43055,0.21528 -0.99566,0.32292 -1.69531,0.32292 h -22.1198 v 11.50391 h 20.62631 c 0.69965,0 1.26476,0.10764 1.69531,0.32292 0.43056,0.21527 0.75348,0.53819 0.96875,0.96875 0.21528,0.43055 0.32292,0.99566 0.32292,1.69531 v 5.16667 c 0,0.69965 -0.10764,1.26476 -0.32292,1.69531 -0.21527,0.43056 -0.53819,0.75348 -0.96875,0.96875 -0.43055,0.21528 -0.99566,0.32292 -1.69531,0.32292 H 122.6387 v 11.78646 h 22.1198 c 0.69965,0 1.26476,0.10764 1.69531,0.32292 0.43056,0.21528 0.75348,0.5382 0.96875,0.96875 0.21528,0.43056 0.32292,0.99566 0.32292,1.69531 v 5.89324 c 0,0.72656 -0.10764,1.30512 -0.32292,1.73567 -0.21527,0.43056 -0.53819,0.75348 -0.96875,0.96875 -0.43055,0.21528 -0.99566,0.32292 -1.69531,0.32292 z m 53.4831,-12.75521 3.3099,-10.69662 21.69337,0.76977 3.3099,9.92685 z m 7.30599,-42.86721 c 0.21528,-0.67274 0.47092,-1.19748 0.76693,-1.57422 0.29601,-0.37673 0.65929,-0.64583 1.08984,-0.80729 0.45747,-0.16146 1.04948,-0.24219 1.77605,-0.24219 h 12.59375 c 0.72657,0 1.30513,0.0807 1.73568,0.24219 0.45747,0.16146 0.8342,0.43056 1.13021,0.80729 0.29601,0.37674 0.55165,0.90148 0.76693,1.57422 l 17.67969,52.39325 c 0.24219,0.69965 0.29601,1.27821 0.16146,1.73568 -0.13455,0.45747 -0.40364,0.82075 -0.80729,1.08985 -0.37674,0.26909 -0.92839,0.40364 -1.65495,0.40364 h -9.40495 c -0.72657,0 -1.31858,-0.0807 -1.77605,-0.24219 -0.43055,-0.18837 -0.78038,-0.47092 -1.04947,-0.84765 -0.2691,-0.37674 -0.51129,-0.90148 -0.72657,-1.57422 l -12.23047,-42.90757 h -0.28255 l -12.23048,42.90757 c -0.16146,0.67274 -0.39019,1.19748 -0.6862,1.57422 -0.29601,0.37673 -0.67274,0.65928 -1.1302,0.84765 -0.43056,0.16146 -0.99567,0.24219 -1.69532,0.24219 h -9.40495 c -0.72656,0 -1.29166,-0.13455 -1.69531,-0.40364 -0.37674,-0.2691 -0.63238,-0.63238 -0.76693,-1.08985 -0.13455,-0.45747 -0.0942,-1.03603 0.12109,-1.73568 z m 47.22659,55.62242 c -0.69965,0 -1.27821,-0.10764 -1.73567,-0.32292 -0.43056,-0.21527 -0.75348,-0.53819 -0.96876,-0.96875 -0.21527,-0.43055 -0.32291,-1.00911 -0.32291,-1.73567 v -52.19143 c 0,-0.72657 0.10764,-1.30513 0.32291,-1.73568 0.21528,-0.43055 0.5382,-0.75347 0.96876,-0.96875 0.45746,-0.21528 1.03602,-0.32292 1.73567,-0.32292 h 21.79689 c 4.33247,0 8.09983,0.86111 11.30209,2.58334 3.20225,1.69531 5.67795,4.09028 7.42708,7.1849 1.77605,3.06771 2.66407,6.68706 2.66407,10.85807 v 0.0807 c 0,4.1441 -0.88802,7.76346 -2.66407,10.85808 -1.74913,3.06771 -4.22483,5.44923 -7.42708,7.14454 -3.20226,1.6684 -6.96962,2.5026 -11.30209,2.5026 h -10.01042 v 14.00652 c 0,0.72656 -0.10764,1.30512 -0.32292,1.73567 -0.21528,0.43056 -0.5382,0.75348 -0.96875,0.96875 -0.43055,0.21528 -0.99566,0.32292 -1.69531,0.32292 z m 18.2448,-46.8633 h -6.45833 v 18.60808 h 6.45833 c 3.12153,0 5.55687,-0.79384 7.306,-2.38151 1.77604,-1.58767 2.66406,-3.88846 2.66406,-6.90235 v -0.0807 c 0,-3.0408 -0.88802,-5.34158 -2.66406,-6.90234 -1.74913,-1.56077 -4.18447,-2.34115 -7.306,-2.34115 z m 45.89455,30.95965 v -16.75131 h 0.76692 l 18.00262,-23.4922 c 0.40364,-0.5651 0.79383,-0.99566 1.17057,-1.29167 0.37673,-0.29601 0.79383,-0.49783 1.2513,-0.60546 0.45747,-0.13455 1.03603,-0.20183 1.73568,-0.20183 h 9.16276 c 0.75347,0 1.30512,0.16146 1.65495,0.48438 0.34983,0.29601 0.5382,0.69965 0.56511,1.21094 0.0538,0.48437 -0.13457,1.00911 -0.56511,1.57422 l -17.92188,23.08855 h -3.47136 z m -11.34246,15.90365 c -0.69965,0 -1.27821,-0.10764 -1.73567,-0.32292 -0.43056,-0.21527 -0.75348,-0.53819 -0.96876,-0.96875 -0.21527,-0.43055 -0.32291,-1.00911 -0.32291,-1.73567 v -52.19143 c 0,-0.72657 0.10764,-1.30513 0.32291,-1.73568 0.21528,-0.43055 0.5382,-0.75347 0.96876,-0.96875 0.45746,-0.21528 1.03602,-0.32292 1.73567,-0.32292 h 8.79949 c 0.69965,0 1.26476,0.10764 1.69531,0.32292 0.43055,0.21528 0.75347,0.5382 0.96875,0.96875 0.21528,0.43055 0.32292,1.00911 0.32292,1.73568 v 52.19143 c 0,0.72656 -0.10764,1.30512 -0.32292,1.73567 -0.21528,0.43056 -0.5382,0.75348 -0.96875,0.96875 -0.43055,0.21528 -0.99566,0.32292 -1.69531,0.32292 z m 33.987,0 c -0.72657,0 -1.31858,-0.0673 -1.77605,-0.20182 -0.45746,-0.13455 -0.8611,-0.34982 -1.21093,-0.64583 -0.34983,-0.32292 -0.69965,-0.78039 -1.04948,-1.3724 l -16.02475,-25.26824 10.77735,-9.48568 21.95834,33.70444 c 0.40365,0.59201 0.57856,1.13021 0.52474,1.61458 -0.0538,0.48438 -0.28253,0.88803 -0.6862,1.21094 -0.37673,0.29601 -0.91493,0.44401 -1.61458,0.44401 z m 22.32161,0 c -0.69965,0 -1.27821,-0.10764 -1.73568,-0.32292 -0.43055,-0.21527 -0.75347,-0.53819 -0.96875,-0.96875 -0.21527,-0.43055 -0.32291,-1.00911 -0.32291,-1.73567 v -52.19143 c 0,-0.72657 0.10764,-1.30513 0.32291,-1.73568 0.21528,-0.43055 0.5382,-0.75347 0.96875,-0.96875 0.45747,-0.21528 1.03603,-0.32292 1.73568,-0.32292 h 8.79949 c 0.69965,0 1.26475,0.10764 1.69531,0.32292 0.43055,0.21528 0.75347,0.5382 0.96875,0.96875 0.21528,0.43055 0.32292,1.00911 0.32292,1.73568 v 52.19143 c 0,0.72656 -0.10764,1.30512 -0.32292,1.73567 -0.21528,0.43056 -0.5382,0.75348 -0.96875,0.96875 -0.43056,0.21528 -0.99566,0.32292 -1.69531,0.32292 z m 47.34768,1.04948 c -5.8125,0 -10.84462,-1.19748 -15.09636,-3.59245 -4.22483,-2.39497 -7.49436,-5.83941 -9.8086,-10.33334 -2.28733,-4.52083 -3.43099,-9.94314 -3.43099,-16.26693 v -0.0404 c 0,-6.32379 1.15712,-11.73265 3.47135,-16.22657 2.31424,-4.49393 5.58377,-7.92492 9.8086,-10.29298 4.25174,-2.39497 9.27041,-3.59245 15.056,-3.59245 4.68229,0 8.86676,0.86111 12.55339,2.58334 3.68663,1.69531 6.68707,4.03646 9.00131,7.02344 2.34115,2.98698 3.83464,6.40452 4.48047,10.25261 v 0 c 0.10763,0.75347 0.0673,1.3724 -0.1211,1.85677 -0.18837,0.48437 -0.51128,0.86111 -0.96875,1.13021 -0.45747,0.24219 -1.06293,0.36328 -1.8164,0.36328 h -8.35548 c -0.64583,0 -1.17057,-0.0807 -1.57422,-0.24219 -0.40365,-0.16146 -0.74002,-0.4171 -1.00911,-0.76693 -0.24219,-0.34983 -0.44401,-0.8342 -0.60547,-1.45312 v 0 c -0.48437,-1.72223 -1.2513,-3.21572 -2.30078,-4.48047 -1.04948,-1.26476 -2.3546,-2.24697 -3.91537,-2.94662 -1.53385,-0.69965 -3.32335,-1.04948 -5.36849,-1.04948 -2.69097,0 -5.03212,0.71311 -7.02344,2.13933 -1.96441,1.42621 -3.48481,3.47135 -4.5612,6.13542 -1.07639,2.63715 -1.61459,5.8125 -1.61459,9.52604 v 0.0404 c 0,3.74045 0.5382,6.95616 1.61459,9.64714 1.07639,2.69097 2.61024,4.74957 4.60156,6.17578 1.99132,1.42621 4.33247,2.13932 7.02344,2.13932 1.91059,0 3.64627,-0.33637 5.20704,-1.00911 1.56076,-0.67275 2.87934,-1.6415 3.95573,-2.90625 1.07639,-1.26476 1.88368,-2.79862 2.42187,-4.60157 v 0 c 0.18837,-0.61892 0.40365,-1.08984 0.64584,-1.41276 0.24219,-0.34983 0.5651,-0.60547 0.96875,-0.76693 0.40365,-0.16145 0.92839,-0.24218 1.57422,-0.24218 h 8.39583 c 0.75347,0 1.34549,0.13455 1.77605,0.40364 0.45746,0.24219 0.78038,0.60547 0.96875,1.08985 0.21527,0.48437 0.25564,1.1033 0.12109,1.85677 v 0 c -0.61892,3.84809 -2.11241,7.27908 -4.48047,10.29297 -2.34115,2.98698 -5.36849,5.32813 -9.08203,7.02344 -3.68664,1.69531 -7.85765,2.54297 -12.51303,2.54297 z m 47.67059,-16.95313 v -16.75131 h 0.76692 l 18.00262,-23.4922 c 0.40365,-0.5651 0.79384,-0.99566 1.17057,-1.29167 0.37673,-0.29601 0.79383,-0.49783 1.2513,-0.60546 0.45747,-0.13455 1.03603,-0.20183 1.73568,-0.20183 h 9.16276 c 0.75347,0 1.30512,0.16146 1.65495,0.48438 0.34983,0.29601 0.5382,0.69965 0.56511,1.21094 0.0538,0.48437 -0.13457,1.00911 -0.56511,1.57422 l -17.92188,23.08855 h -3.47136 z m -11.34246,15.90365 c -0.69965,0 -1.27821,-0.10764 -1.73567,-0.32292 -0.43056,-0.21527 -0.75348,-0.53819 -0.96875,-0.96875 -0.21528,-0.43055 -0.32292,-1.00911 -0.32292,-1.73567 v -52.19143 c 0,-0.72657 0.10764,-1.30513 0.32292,-1.73568 0.21527,-0.43055 0.53819,-0.75347 0.96875,-0.96875 0.45746,-0.21528 1.03602,-0.32292 1.73567,-0.32292 h 8.79949 c 0.69965,0 1.26476,0.10764 1.69531,0.32292 0.43055,0.21528 0.75347,0.5382 0.96875,0.96875 0.21528,0.43055 0.32292,1.00911 0.32292,1.73568 v 52.19143 c 0,0.72656 -0.10764,1.30512 -0.32292,1.73567 -0.21528,0.43056 -0.5382,0.75348 -0.96875,0.96875 -0.43055,0.21528 -0.99566,0.32292 -1.69531,0.32292 z m 33.987,0 c -0.72657,0 -1.31858,-0.0673 -1.77604,-0.20182 -0.45747,-0.13455 -0.86111,-0.34982 -1.21094,-0.64583 -0.34983,-0.32292 -0.69965,-0.78039 -1.04948,-1.3724 l -16.02475,-25.26824 10.77735,-9.48568 21.95834,33.70444 c 0.40365,0.59201 0.57856,1.13021 0.52474,1.61458 -0.0538,0.48438 -0.28253,0.88803 -0.6862,1.21094 -0.37673,0.29601 -0.91493,0.44401 -1.61458,0.44401 z" /></svg>
