<svg xmlns="http://www.w3.org/2000/svg" width="1252" height="170"><path d="M0 0v170h1252V0z" style="fill:#fff;stroke:none"/><path d="M643 118c0 8.412-1.672 18.875.637 27 7.796 27.429 53.125 26.971 75.363 22.115 6.316-1.379 14.074-7.572 20-7.686 7.552-.146 16.433 7.853 25 8.481 14.967 1.097 32.08 1.515 47-.084 4.905-.525 9.762-3.485 14.576-3.639 4.667-.15 9.702 3.063 14.424 3.629 21.049 2.52 55.564 3.673 64-20.816 10.425 5.315 19.63 11.892 31 15.492 27.133 8.589 60.772 7.397 89 5.418 9.02-.631 18.22-2.627 27-4.714 3.4-.808 7.49-3.348 11-2.883 5.05.67 9.82 4.903 15 6.108 18.11 4.21 57.32 6.99 70-9.421h1c9.47 12.073 27.27 11 41 11 19.98 0 52.99 3.975 59.53-22 1.49-5.942.84-13.905.42-20-.98-13.931-15.68-22.539-24.95-31-2.74-2.504-11.79-7.804-11.23-12.075.78-6 14.4-13.963 18.64-18.171 14.43-14.327 18.16-40.8-.41-54.117C1218.21 1.47 1200.79 4 1186 4c-6.78 0-14.37-.941-21 .595-6.19 1.434-11.94 5.737-18 6.774-7.41 1.27-17.56-7.251-26-7.365-12.39-.167-26.82-1.92-39 .371-6.83 1.284-14.38 7.523-21 7.492-10.18-.047-22.57-6.209-33-7.658-19.92-2.768-44.964-1.968-65-.105-12.714 1.182-26.305 4.587-38 9.758-5.201 2.3-13.363 9.562-18.892 9.681-3.555.077-6.75-7.21-9.126-9.438C891.45 8.919 882.641 4.576 875 4.054c-11.492-.785-25.64-1.676-37 .205-5.255.87-10.756 5.306-16 5.084-5.545-.236-11.282-4.34-17-5.134-13.992-1.945-31.959-1.657-46-.08-7.362.827-14.117 7.117-21 7.504-5.91.332-13.881-5.861-20-7.178-12.392-2.666-30.395-1.742-43-.326-6.07.682-12.859 3.17-18 6.43-3.052 1.936-6.264 5.95-10 6.37-3.951.446-8.47-3.26-12-4.672-6.623-2.65-13.997-4.57-21-5.882C593.101 2.462 571.255 4 550 4c-12.203 0-25.97-1.786-38 .26-9.282 1.579-20.059 8.597-24.786 16.74-8.484 14.613-.415 35.043-4.214 51h-1c-4.442-11.649-12.639-22.4-19.139-33C455.462 26.934 449.674 13.728 436 7.564 423.718 2.028 409.124 4 396 4c-12.876 0-25.065-.444-36 7.613-8.855 6.523-13.582 16.28-19.246 25.387C330.57 53.372 319.96 69.932 311 87c-2.653-11.142 2.516-15.984 5.363-26 3.086-10.86 2.37-30.497-3.632-40C307.849 13.27 298.432 5.25 289 4.13 258.912.558 226.32 4 196 4c-15.782 0-30.353-1.51-43.169 9.529C138.414 25.944 143 47.835 143 65c0 4.932 2.138 16.655-1.603 20.397C136.236 90.557 115.107 87 108 87V45c0-8.95 1.001-17.287-4.465-24.96C91.62 3.31 73.332 4 55 4c-17.605 0-37.621.799-46.722 19C3.293 32.97 6 48.079 6 59v58c0 8.697-1.75 19.599.637 28 2.518 8.857 10.255 15.88 18.363 19.677C37.255 170.415 52.79 168 66 168c24.627 0 50.502 2.3 75-.105 5.13-.504 9.033-4.392 14-5.045 4.924-.647 10.209 3.61 15 4.632 7.883 1.682 16.965.518 25 .518 30.29 0 60.725.874 91-.015 6.334-.187 11.954-5.266 18-4.982 5.57.262 11.311 3.886 17 4.697 12.743 1.816 28.167 1.239 41 .207 7.523-.606 15.423-3.974 21-9.012 4.573-4.13 8.374-11.257 15.001-11.836 11.332-.991 13.251 6.142 21.003 12.612 5.705 4.762 12.725 6.992 19.996 8.029 12.954 1.846 30.046 1.846 43 0 5.346-.762 10.525-4.045 15.715-4.51 5.134-.46 11.955 3.75 17.285 4.51 11.558 1.648 24.329.436 36 .296 14.187-.17 29.258-7.15 34.811-20.996 1.756-4.378-.609-11.996 2.792-15.397 2.79-2.79 10.609-2.093 14.397-2.799 13.632-2.542 26.75-8.441 40-10.804" style="fill:#373535;stroke:none"/><path d="M899 43c0-31.766-38.392-33.93-63-28.61-4.642 1.004-8.404 5.436-12.911 6.065-5.588.78-14.06-6.443-21.089-6.455-14.823-.025-32.507-2.62-47 .518-6.285 1.362-11.126 7.233-17 8.366-3.598.694-7.088-3.57-10-5.176-5.093-2.807-10.269-3.698-16-3.708-17.861-.03-57.769-6.772-61 19-27.896-27.243-77.504-19-113-19-14.515 0-32.32-3.012-42.525 10.04C490.332 30.618 492 40.176 492 48v54c-13.933-16.39-24.235-38.414-35.139-57-5.841-9.956-11.205-21.917-21.862-27.601C423.746 11.396 408.373 14 396 14c-13.858 0-26.62-1.288-36.815 10.015-14.999 16.63-26.584 41.429-37.494 60.985-2.46 4.41-9.566 20.585-14.792 21.369-3.011.451-5.53-3.146-5.604-5.793-.296-10.56 2.771-22.205-.295-32.576 15.93-9.557 9.612-42.295-4-50.811C287.934 11.517 274.29 14 264 14h-77c-12.231 0-25.395-.485-33.231 11.015C149.406 31.416 151 40.643 151 48v52c-15.669-5.64-34.439-3-51-3V49c0-7.327 1.449-16.367-2.533-22.91-3.117-5.122-8.85-9.098-14.467-10.985C77.084 13.118 70.156 14 64 14c-15.377 0-37.179-3.939-47.231 11.004C11.273 33.174 14 47.558 14 57c0 26.653-4.513 57.816.264 84 4.501 24.676 46.25 17 63.736 17 20.88 0 43.278 2.331 64-.13 5.116-.607 9.17-5.794 14-5.948 5.328-.17 10.184 5.701 16 6.035 23.169 1.329 46.79.043 70 .043 17.461 0 48.309 6.248 61-8h1c10.73 12.856 35.055 8 50 8 6.65 0 12.917.484 19-2.684 7.15-3.725 10.405-13.857 17.185-16.713 6.303-2.654 17.014-.603 23.815-.603 6.826 26.317 49.988 22.821 71 19.79 4.485-.647 7.783-3.768 12-4.785 4.792-1.157 10.141 4.165 15 4.807 13.769 1.817 35.535 3.001 49-.366 8.094-2.024 16.832-8.729 17.87-17.446.575-4.819-2.225-15.854 2.448-18.972 5.705-3.807 17.966-.42 24.682-1.467 17.179-2.678 31.323-8.912 45-19.561 0 12.927-4.677 37.313 3.475 47.985C665.378 162.26 687.326 158 703 158c6.428 0 13.834 1.004 20-1.108 6.111-2.093 11.858-6.231 15-11.892 5.777 4.069 10.073 9.569 17 11.895 6.747 2.266 14.97 1.105 22 1.105 12.166 0 24.894 1.08 37-.105 4.177-.409 7.835-3.389 12-3.389 3.849 0 7.221 2.709 11 3.281 11.912 1.802 30.221 2.332 42-.177 14.237-3.033 20-15.545 20-28.61 35.15 35.151 85.777 33.303 132 28.83 7.06-.683 14.3-2.386 21-4.668 3.23-1.099 7.51-4.173 11-3.512 5.29 1.005 9.49 6.419 15 7.796 5.94 1.484 12.92.554 19 .554 15.77 0 40.76 4.62 49-13 6.02 4.226 10.81 9.628 18 12.045 7.73 2.597 17.92.955 26 .955 21.77 0 58.11 3.384 51.66-30-3.77-19.537-33.52-30.869-44.66-46 11.2-5.193 30.94-21.8 36.54-33 5.74-11.48.57-27.165-10.54-32.722-5.98-2.988-12.51-2.278-19-2.278-12.74 0-28.64-2.556-41 .61-5.44 1.392-11.93 8.289-17 8.353-6.61.083-13.32-8.49-21-8.92-13.82-.774-31.44-2.377-45 .336-6.08 1.215-12.24 8.01-18 8.055-9.24.074-21.17-7.073-31-8.25-32.937-3.943-71.952-5.468-103 8.15-11.606 5.09-19.054 13.468-29 20.666" style="fill:#fff;stroke:none"/><path d="M962 29v1h65l-19-2.04z" style="fill:#85a1c1;stroke:none"/><path d="M43 28v1h6zm22 0v1h6zm109 1v1l9-1zm105-1v1l7 1zm101 1v1l12-1zm31-1v1h7zm104 1v1l9-1zm67-1v1h11z" style="fill:#8fb991;stroke:none"/><path d="M676 29v1c12.017-.248 38.949-6.658 45.972 7.015 2.131 4.148.217 9.573.028 13.985h-1c0-4.721 1.372-11.934-2.318-15.57-6.87-6.77-28.753-4.227-37.682-3.256-3.475.377-7.884 1.291-10.142 4.22C667.254 41.068 669 50.451 669 56v51c0 7.445-3.029 23.688 2.514 29.431 7.335 7.6 28.098 5.353 37.486 3.815 3.475-.569 7.921-.972 10.397-3.815C722.456 132.918 721 125.35 721 121h1c.646 15.046-2.649 21.298-19 22v1c6.192-.004 15.14.101 19.397-5.34 6.275-8.021-.677-26.549-1.397-35.66h1c4.002 7.312 11.156 13.156 17 19 11.721 11.721 19.525 21.988 37 22v-1c-21.144-.436-41.189-24.688-53-41h-2l-1 12h-1l-1-18c15.776 11.221 25.713 33.197 43.015 42.001C768.482 141.8 777.894 141 786 141c5.353 0 28.448 2.177 27.534-7.019-.597-6.014-10.332-12.03-14.534-15.696-12.984-11.326-30.038-22.151-40-36.285 13.946-7.227 26.045-21.901 37.985-32.08 3.365-2.868 10.883-7.679 10.353-12.813-.474-4.591-6.866-5.001-10.338-5.092-11.293-.296-26.187-2.316-36.999 1.21C742.052 39.076 734.305 64.296 718 73l1-15h1l1 10 38-37v-1c-15.471 4.94-23.996 24.8-37 34 .362-8.423 5.21-20.996.972-28.956-6.423-12.064-36-7.43-46.972-6.044m84 0v1h44c-11.373-5.466-31.775-2.545-44-1m81 0v1h33c-7.871-4.715-24.238-2.627-33-1m244 0v1h38c-9.7-5.155-27.43-2.336-38-1m84 0v1c6.36-.131 12.6-1 19-1 4.32 0 8.68-.15 13 .04 5.35.234 18.75 1.422 16.34 9.96-1.11 3.922-5.49 7.198-8.3 9.907-8.25 7.941-17.26 15.48-26.04 22.847-3.28 2.748-8.96 5.97-10.34 10.246-1.75 5.414 7.21 10.297 10.51 13.26 11.9 10.679 30.69 21.36 39.27 34.833 6.54 10.268-8.74 12.619-15.44 12.907v1c7.79-.021 23.59-2.198 17.56-13.907-2.78-5.398-9.14-9.311-13.56-13.259-11.27-10.06-24.35-25.476-38-31.834 7.4-15.54 30.06-26.598 41.94-39.04 10.37-10.864-1.2-17.681-11.94-17.945-4.66-.115-9.34-.015-14-.015-6.77 0-13.28.151-20 1" style="fill:#85a1c1;stroke:none"/><path d="M39 29v1h3zm33 0v1h3zm347 0v1h4zm175 0v1h7zM33 33l4-2zm44-3v1l7 5zm95 0c-7.874 7.565-6 16.792-6 27v59c0 9.664-2.478 20.386 7 26-7.956-11.487-6-23.337-6-37V61c0-6.86-1.34-15.327.318-22 .855-3.443 3.887-5.651 4.682-9m115 0 6 7zm90 0-6 6 7-5zm47 0v1l3 1zm89 0c-7.874 7.565-6 16.792-6 27v59c0 9.446-2.712 20.901 7 26v-1c-8.9-7.008-6-19.68-6-30V62c0-7.163-1.413-16.035.318-23 .855-3.443 3.887-5.651 4.682-9m92.667.333.666.334z" style="fill:#8fb991;stroke:none"/><path d="M674 142c-8.43-10.591-7-19.764-7-33V59c0-10.89-2.33-21.397 8-28-11.257-2.393-9 16.689-9 23v65c0 9.079-2.104 19.05 8 23M805 30v1c8.601 6.985 1.304 12.51-4.999 18.166C791.082 57.168 781.675 64.749 773 73c-2.656 2.526-8.596 6.069-9.079 10.01-.569 4.648 7.876 9.826 10.909 12.476 12.04 10.52 29.837 21.082 38.683 34.514 6.975 10.59-8.496 12.855-15.513 13v1c7.914-.005 24.089-1.776 17.972-14-2.914-5.825-10.092-10.303-14.971-14.41C789.477 105.888 777.716 91.283 764 85v-3c14.566-6.753 32.981-25.103 43.852-37.09C812.531 39.75 811.687 32.5 805 30m46 114v-1c-6.762-.534-12.836-1.38-16-8 12.055 8.82 32.962 8.807 45 0l-4 7c8.978-4.913 7-15.175 7-24V54c0-8.937 1.994-20.033-8-24v1l5 7h-1c-6.062-9.6-37.053-9.675-43 0h-1l5-7c-11.304-.578-8 21.1-8 28v54c0 7.04-1.933 17.569 1.457 23.957 3.348 6.31 11.193 6.99 17.543 7.043M951 31v1l9-1zm-41 32c5.234-16.817 24.379-25.565 40-30v-1c-33.293 4.505-47 31.69-47 62h1l2-21h1v26h-1l-1-4h-1c.718 33.715 39.377 48.409 68 49v-1c-22.639-2.861-54.071-8.509-62-34h1c6.819 15.8 23.006 24.146 39 28 32.031 7.717 75.47 9.355 105-7l-12 8v1c15.1-1.547 19.61-15.432 8.91-25.826-7.98-7.746-16.62-7.474-26.91-6.174v1c13.01-.268 24.38-.513 30 14h-1c-12.07-23.253-48.29-4.698-69-7.184-10.928-1.312-24.826-8.415-25-20.816 11.19 24.631 41.95 20.432 64 15v-1c-17.11 2.21-37.103 8.518-52.985-1.969C951.72 93.291 962.299 66.121 982 62v-1c-12.105 1.063-15.805 7.97-23 16 8.395-24.215 40.495-22.1 61-17.5 11.22 2.516 28.48 1.367 32.42-12.504 1.6-5.645-3.86-9.081-8.42-10.633-10.23-3.477-21.38-3.825-32-5.078C974.664 26.88 934.228 32.428 910 63m120-33v1l9 1zm66 114v-1c-6.71-.288-14.36-.83-18.4-7.015-3.43-5.263-1.6-14.94-1.6-20.985V64c0-11.301-3.71-26.905 8-33-12.15-2.794-9 19.353-9 26v58c0 6.281-2.15 17.546 1.6 22.895 4.15 5.918 12.92 6.087 19.4 6.105m28-114v1c7.71 4.51 7.98 10.92 6 19h-1c.03-4.098 1.97-10.133-.75-13.606-6.29-8.051-29.17-4.974-38.25-4.304-3.62.267-8.04 1.072-10.4 4.138-2.97 3.868-1.6 11.184-1.6 15.772v71c0 3.962-1.11 10.13 1.74 13.351 2.45 2.768 6.83 3.322 10.26 3.894 9.27 1.549 30.28 3.776 37.57-3.675 3.58-3.663 1.47-9.984 1.43-14.57h1c2.73 14.657-3.06 20.359-18 21v1c3.04-.008 6.01-.053 9-.619 19.7-3.727 9.28-25.709 9-39.381 16.13 16.132 30.37 39.997 55 40v-1c-27.92-.576-33.68-30.593-56-41v10h-1l-2-16c17.35 9.263 25.7 32.451 43 41.86 7.21 3.923 17.09 3.14 25 3.14 5.21 0 30.9 2.034 28.16-7.925-1.34-4.915-8.1-8.919-11.74-12.075-9.49-8.252-19.03-16.463-28.42-24.834-3.27-2.915-11.73-7.509-12.37-12.177-.6-4.43 8.45-10.147 11.37-12.704 8.26-7.24 16.53-14.451 24.71-21.775 3.26-2.91 8.35-6.087 9.63-10.495 2.82-9.69-20.43-7.015-25.34-7.015-7.73 0-16.95-1.414-24 2.417-16.08 8.744-23.59 30.902-40 38.583l1-13h2v8l39-37v-1c-16.36 3.89-23.86 26.035-38 34 1.98-10.527 8.57-30.527-6-34" style="fill:#85a1c1;stroke:none"/><path d="M608 31v1h4zM42 32.519C30.836 34.959 33 44.922 33 54v57c0 6.614-2.177 18.018 1.028 23.945C38.084 142.447 50.979 140 58 140h54c7.07 0 17.343 1.876 23.985-.742 8.561-3.376 9.158-17.498 1.907-22.516C129.367 110.843 107.184 115 97 115c-3.88 0-11.386 1.407-14.397-1.603C78.862 109.655 81 97.932 81 93V51c0-4.635 1.397-11.961-2.318-15.49C73.591 30.674 64.372 32 58 32c-5.216 0-10.876-.602-16 .519m135.001.134C167.487 35.656 170 47.179 170 55v57c0 6.377-2.065 17.224 1.028 22.945C175.256 142.767 189.671 140 197 140h64c6.925 0 18.98 2.293 24.941-1.742 7.602-5.146 5.298-21.058-3.942-22.979C268.764 112.525 252.527 115 239 115c-4.621 0-11.55 1.275-15.852-.603-4.157-1.815-4.115-10.651-2.545-14.249C222.738 95.258 231.726 97 236 97c11.504 0 44.189 5.899 47.606-9 5.327-23.23-34.312-16-47.606-16-7.117 0-16.216 1.685-15.976-8 .229-9.237 10.307-7 16.976-7h37c5.099 0 10.945.653 14.258-4.109 4.95-7.115 1.657-19.269-7.258-20.677-22.192-3.506-47.513-.214-70-.214-10.265 0-24.18-2.447-33.999.653M384 32.468c-10.478 1.98-14.221 12.234-19.2 20.532-11.417 19.029-22.982 37.97-34.4 57-2.98 4.966-16.924 21.815-10.952 26.995 6.897 5.981 32.254 4.816 40.551 2.201 9.093-2.866 8.858-13.873 16.211-18.168C379.852 118.9 385.938 120 390 120c10.599 0 22.522-1.541 32.981.148 7.547 1.219 9.13 12.99 15.062 17.149 8.026 5.627 30.679 4.305 39.953 2.019 7.642-1.884 7.046-7.509 3.775-13.316-5.905-10.484-12.381-20.682-18.571-31l-24.6-41c-3.534-5.891-6.97-14.832-12.785-18.775-9.138-6.197-31.294-4.747-41.815-2.757M428 32l12 18zm90.001.653C505.765 36.516 511 65.64 511 76v43c0 4.549-1.539 12.643 1.028 16.606 1.957 3.022 6.669 3.861 9.972 4.22 9.379 1.02 22.988 1.918 31.996-1.051 16.15-5.321-1.274-28.676 9.322-35.747 5.504-3.673 19.203-.955 25.682-1.032 16.917-.201 40.354-5.18 50.532-20.01 11.462-16.704.411-36.853-16.532-43.368C599.532 29.594 573.617 32 549 32c-9.401 0-21.998-2.189-30.999.653m96.666-.32.666.334z" style="fill:#8fb991;stroke:none"/><path d="M1040 32v1c20.43 5.812 14.61 22.031-2 29.583-8.23 3.742-17.51-1.218-26-1.583v1c10.57 1.342 21.01 5.807 31-.213 15.28-9.205 17.63-26.995-3-29.787" style="fill:#85a1c1;stroke:none"/><path d="M31 33c-4.321 8.98-2 22.18-2 32v70h1V62zm586 0v1l5 1v-1zm7 2v1l4 1v-1zM84 37v74h1V60zm286 0-2 4zm259 0v1l4 2v-1zm-336 2v11h1zm341 1 9 9zm-267 2-2 4zm-3 5-2 4zm279 3 2 6h1zm-203 1 9 14zm-148 1-11 8v1c4.736-.752 11.117-3.493 11-9m69 0-2 4zm-3 5-8 14c3.615-3.076 8.464-9.063 8-14" style="fill:#8fb991;stroke:none"/><path d="M562.603 58.028c-2.857 2.263-2.857 15.681 0 17.944 4.92 3.897 22.639 1.213 27.169-2.536 14.431-11.943-19.19-21.728-27.169-15.408" style="fill:#fff;stroke:none"/><path d="M646 58v17h1z" style="fill:#8fb991;stroke:none"/><path d="M816 58c-7.319 8.455-23.884 16.061-27 27l28 22c0-13.788 4.309-36.348-1-49" style="fill:#373535;stroke:none"/><path d="M984 60v1h25c-7.21-3.83-17.236-1.981-25-1" style="fill:#85a1c1;stroke:none"/><path d="m223 61 1 7zm341 0-1 12h1zm17 0v1h3zm4 1 1 1zm2 1 1 8h1c.94-3.45 1.054-5.841-2-8" style="fill:#8fb991;stroke:none"/><path d="M908 63v7h1l1-7zm-186.667 1.667.334.666z" style="fill:#fff;stroke:none"/><path d="m449 66 5 7zm-173.333 2.333.666.334zM278 69v1l3 1z" style="fill:#8fb991;stroke:none"/><path d="M1058 70c-12.01 9.435-25.13 11.777-40 8.64-10.48-2.21-28.057-7.9-37.566.253-9.53 8.171 3.031 16.847 10.566 17.898 10.53 1.468 20.8-2.799 31-4.466 13.46-2.2 25.03.088 37 5.675z" style="fill:#373535;stroke:none"/><path d="M282 71c5.13 10.928 4.521 17.972-2 28 9.056-5.526 9.638-21.017 2-28m300 1v1l5-1zm-233 0-2 4zm105 2c2.468 6.17 6.297 15.34 12 19zm-108 3-5 9zm299 0-2 5h1z" style="fill:#8fb991;stroke:none"/><path d="M391 93h20c-1.513-3.528-5.377-14.364-10.025-14.364-4.722 0-8.594 10.743-9.975 14.364m418-4V78c-6.259 3.02-6.259 7.98 0 11m149-8v10h1z" style="fill:#fff;stroke:none"/><path d="m401 82-5 8h1l3-6h2l1 3h1zm241 1-5 7z" style="fill:#8fb991;stroke:none"/><path d="M988 85v2h18z" style="fill:#fff;stroke:none"/><path d="m340 87-2 4zm64 1 2 2zm-6 2v1h6zm237 0-3 4zm-298 2-2 4zm129 2 9 14zm162 2 3-1zm-2 0-4 2v1l5-2zm-292 1-5 9zm-56.333 2.333.666.334zM617 100v1l4-1zm-345 0v1h4zm-50 1v10h1zm391.667.333.666.334zM608 102v1h4z" style="fill:#8fb991;stroke:none"/><path d="M908 102v7h2z" style="fill:#fff;stroke:none"/><path d="M604 103v1h3zm-16 2v1l14-1zm-25 1c0 11.187 3.613 27.43-6 35v1c12.185-6.397 5.29-24.617 8-36zm-235 1-2 4zm147 2 12 19zm-343 2v1l9 3zm147 0v1l7 1zm46 1-8 14h1zm-38 1 5 7h1zm-145 2c2.937 9.412 4.607 21.309-5 27v1c10.217-3.994 12.393-20.208 5-28m151 6v13h1z" style="fill:#8fb991;stroke:none"/><path d="m1055 122 1 1z" style="fill:#fff;stroke:none"/><path d="m365 141 13.213-15.972L392 124h33l-35-1-12.871 1.028zm60-16 2 4h1zm-109 2c-3.073 6.386-2.204 11.293 4 15z" style="fill:#8fb991;stroke:none"/><path d="m1055.33 128.667.34.666z" style="fill:#fff;stroke:none"/><path d="m487 129-4 13c4.355-3.318 6.204-7.747 4-13m-59 1 10 12v-1zm-136 5-10 8v1c4.483-1.136 10.272-3.67 10-9m-262 1 6 6z" style="fill:#8fb991;stroke:none"/><path d="M1031 141v1l11-2z" style="fill:#85a1c1;stroke:none"/><path d="m363 141-4 1v1l5-1zm-325.333 1.333.666.334zM174 142v1l6 1v-1zm147 0v1l10 1zm118 0v1h4zm33 1v1l10-1zm43-1v1h4zm37 0v1h4z" style="fill:#8fb991;stroke:none"/><path d="M675 142v1l13 1zm189 1v1l11-1zm150 0v1l16-1z" style="fill:#85a1c1;stroke:none"/><path d="M40 143v1h3zm94.667.333.666.334zM355 143v1h3zm89 0v1h5zm76 0v1h4zm27 0v1h4z" style="fill:#8fb991;stroke:none"/><path d="M979 144v1h29z" style="fill:#85a1c1;stroke:none"/></svg>